<svg width="181" height="106" viewBox="0 0 181 106" fill="none" xmlns="http://www.w3.org/2000/svg">
<path fill-rule="evenodd" clip-rule="evenodd" d="M173.515 69.2856L173.86 37.645C173.875 36.2407 172.75 35.09 171.345 35.0746L168.398 35.0425C166.994 35.0272 165.843 36.1532 165.828 37.5575L165.483 69.1981C165.468 70.6023 166.594 71.7531 167.998 71.7684L170.945 71.8005C172.349 71.8158 173.5 70.6899 173.515 69.2856ZM179.86 37.7104C179.911 32.9926 176.128 29.1264 171.411 29.075L168.464 29.0429C167.417 29.0315 166.412 29.2089 165.481 29.5434L165.613 17.4899C165.706 8.91216 158.828 1.88273 150.25 1.78927L17.4139 0.341868C8.83617 0.248404 1.80674 7.12631 1.71328 15.7041L0.921692 88.3524C0.828228 96.9302 7.70612 103.96 16.2839 104.053L149.12 105.501C157.698 105.594 164.728 98.7161 164.821 90.1383L164.962 77.2027C165.885 77.5574 166.886 77.7567 167.933 77.7681L170.88 77.8002C175.597 77.8516 179.464 74.0687 179.515 69.351L179.86 37.7104ZM158.821 90.0729L159.613 17.4246C159.67 12.1603 155.449 7.84627 150.185 7.78891L17.3486 6.34151C12.0843 6.28415 7.77028 10.5052 7.71292 15.7695L6.92134 88.4178C6.86398 93.6821 11.085 97.9961 16.3493 98.0535L149.186 99.5009C154.45 99.5582 158.764 95.3372 158.821 90.0729ZM110.959 17.4586C111.484 16.3263 111.094 14.9805 110.044 14.3049C108.995 13.6294 107.608 13.8312 106.795 14.7778L71.141 56.2733C70.5044 57.0142 70.3576 58.0581 70.7653 58.9458C71.1729 59.8336 72.0603 60.4025 73.0372 60.4025L89.3211 60.4025L77.7066 89.0499C77.2433 90.1926 77.6824 91.5025 78.7409 92.1351C79.7993 92.7677 81.161 92.5341 81.948 91.5848L114.952 51.7781C115.57 51.0322 115.702 49.9962 115.29 49.1192C114.878 48.2423 113.996 47.6824 113.027 47.6824L96.947 47.6824L110.959 17.4586ZM93.0323 55.4025L78.4813 55.4025L98.8436 31.7042L90.7642 49.1309C90.4053 49.9051 90.4661 50.8088 90.9254 51.528C91.3846 52.2472 92.179 52.6824 93.0324 52.6824L107.707 52.6824L88.4102 75.9569L95.3492 58.8419C95.6616 58.0712 95.5704 57.1955 95.1058 56.5058C94.6412 55.8161 93.864 55.4025 93.0323 55.4025Z" fill="#E7D5A1"/>
</svg>
