<svg width="181" height="106" viewBox="0 0 181 106" fill="none" xmlns="http://www.w3.org/2000/svg">
<path fill-rule="evenodd" clip-rule="evenodd" d="M173.515 69.2856L173.86 37.645C173.875 36.2407 172.75 35.09 171.345 35.0746L168.398 35.0425C166.994 35.0272 165.843 36.1532 165.828 37.5575L165.483 69.1981C165.468 70.6023 166.594 71.7531 167.998 71.7684L170.945 71.8005C172.349 71.8158 173.5 70.6899 173.515 69.2856ZM179.86 37.7104C179.911 32.9926 176.128 29.1264 171.411 29.075L168.464 29.0429C167.417 29.0315 166.412 29.2089 165.481 29.5434L165.613 17.4899C165.706 8.91216 158.828 1.88273 150.25 1.78927L17.4139 0.341868C8.83617 0.248404 1.80674 7.12631 1.71328 15.7041L0.921692 88.3524C0.828228 96.9302 7.70612 103.96 16.2839 104.053L149.12 105.501C157.698 105.594 164.728 98.7161 164.821 90.1383L164.962 77.2027C165.885 77.5574 166.886 77.7567 167.933 77.7681L170.88 77.8002C175.597 77.8516 179.464 74.0687 179.515 69.351L179.86 37.7104ZM158.821 90.0729L159.613 17.4246C159.67 12.1603 155.449 7.84627 150.185 7.78891L17.3486 6.34151C12.0843 6.28415 7.77028 10.5052 7.71292 15.7695L6.92134 88.4178C6.86398 93.6821 11.085 97.9961 16.3493 98.0535L149.186 99.5009C154.45 99.5582 158.764 95.3372 158.821 90.0729ZM101.744 19.3872C102.233 18.3318 101.869 17.0772 100.891 16.4475C99.9127 15.8177 98.62 16.0059 97.8618 16.8882L64.6253 55.5702C64.0319 56.2609 63.8951 57.234 64.2751 58.0615C64.6551 58.889 65.4823 59.4194 66.3929 59.4194L81.5727 59.4194L70.7458 86.1244C70.3139 87.1896 70.7232 88.4107 71.7099 89.0004C72.6966 89.5901 73.9659 89.3724 74.6996 88.4875L105.466 51.3798C106.042 50.6845 106.165 49.7187 105.781 48.9012C105.397 48.0837 104.575 47.5618 103.672 47.5618L88.6816 47.5618L101.744 19.3872ZM85.0323 54.7585L71.468 54.7585L90.4495 32.667L82.918 48.9121C82.5834 49.6338 82.6401 50.4762 83.0682 51.1467C83.4964 51.8171 84.2369 52.2228 85.0323 52.2228L98.7122 52.2228L80.7236 73.9191L87.1921 57.9646C87.4834 57.2461 87.3983 56.4299 86.9652 55.7869C86.5321 55.144 85.8076 54.7585 85.0323 54.7585Z" fill="#E7D5A1"/>
</svg>
