<svg width="22" height="22" viewBox="0 0 22 22" fill="none" xmlns="http://www.w3.org/2000/svg">
<path fill-rule="evenodd" clip-rule="evenodd" d="M14.2005 7.33336C14.3583 6.9384 14.4451 6.50739 14.4451 6.05611C14.4451 4.15349 12.9027 2.61111 11.0001 2.61111C9.09743 2.61111 7.55505 4.15349 7.55505 6.05611C7.55505 6.50739 7.64182 6.9384 7.79959 7.33336H5.70569C5.60722 6.9237 5.55505 6.496 5.55505 6.05611C5.55505 3.04892 7.99286 0.611115 11.0001 0.611115C14.0072 0.611115 16.4451 3.04892 16.4451 6.05611C16.4451 6.496 16.3929 6.9237 16.2944 7.33336H14.2005Z" fill="#3D4149"/>
<mask id="path-2-inside-1_68_89" fill="white">
<rect y="6.11111" width="22" height="15.2778" rx="1"/>
</mask>
<rect y="6.11111" width="22" height="15.2778" rx="1" stroke="#3D4149" stroke-width="4" mask="url(#path-2-inside-1_68_89)"/>
</svg>
