<svg width="20" height="20" viewBox="0 0 20 20" fill="none" xmlns="http://www.w3.org/2000/svg">
<path d="M4.08211 3.24682C2.84573 2.26391 0.897515 0.875115 0.897515 0.875115C0.897515 0.875115 2.23657 2.85786 3.1879 4.11872C7.19627 9.43133 10.2971 12.6117 15.5066 16.7532C16.743 17.7361 18.6912 19.1249 18.6912 19.1249C18.6912 19.1249 17.3521 17.1421 16.4008 15.8813C12.3924 10.5687 9.29157 7.38833 4.08211 3.24682Z" fill="#E7D5A1"/>
<path d="M3.24657 15.7123C2.26367 16.9487 0.874901 18.897 0.874901 18.897C0.874901 18.897 2.85761 17.5579 4.11845 16.6066C9.43097 12.5981 12.6113 9.4972 16.7527 4.28766C17.7356 3.05126 19.1244 1.10301 19.1244 1.10301C19.1244 1.10301 17.1417 2.44209 15.8808 3.39343C10.5683 7.40187 7.388 10.5028 3.24657 15.7123Z" fill="#E7D5A1"/>
</svg>
