<svg width="45" height="45" viewBox="0 0 45 45" fill="none" xmlns="http://www.w3.org/2000/svg">
<path d="M9.1849 7.30548C6.403 5.09388 2.01944 1.96904 2.01944 1.96904C2.01944 1.96904 5.03238 6.43029 7.17289 9.26728C16.1919 21.2208 23.1689 28.3767 34.8904 37.6953C37.6723 39.9069 42.0559 43.0317 42.0559 43.0317C42.0559 43.0317 39.0429 38.5705 36.9024 35.7335C27.8834 23.7799 20.9064 16.624 9.1849 7.30548Z" fill="#E7D5A1"/>
<path d="M7.30484 35.3533C5.09328 38.1353 1.96849 42.5189 1.96849 42.5189C1.96849 42.5189 6.42967 39.5059 9.26661 37.3654C21.22 28.3462 28.3758 21.3691 37.6941 9.64738C39.9057 6.86544 43.0305 2.4818 43.0305 2.4818C43.0305 2.4818 38.5693 5.49479 35.7324 7.63533C23.779 16.6545 16.6232 23.6317 7.30484 35.3533Z" fill="#E7D5A1"/>
</svg>
