<svg width="17" height="15" viewBox="0 0 17 15" fill="none" xmlns="http://www.w3.org/2000/svg">
<path d="M1 2.5C1 2.5 2.82843 2.5 4 2.5M4 2.5C4 1.67157 4.67157 1 5.5 1C6.32843 1 7 1.67157 7 2.5M4 2.5C4 3.32843 4.67157 4 5.5 4C6.32843 4 7 3.32843 7 2.5M7 2.5C10.5147 2.5 16 2.5 16 2.5" stroke="#E7D5A1" stroke-linecap="round" stroke-linejoin="round"/>
<path d="M1 7.74994C1 7.74994 8.07843 7.74994 9.25 7.74994M9.25 7.74994C9.25 6.92151 9.92157 6.24994 10.75 6.24994C11.5784 6.24994 12.25 6.92151 12.25 7.74994M9.25 7.74994C9.25 8.57837 9.92157 9.24994 10.75 9.24994C11.5784 9.24994 12.25 8.57837 12.25 7.74994M12.25 7.74994C15.7647 7.74994 16 7.74994 16 7.74994" stroke="#E7D5A1" stroke-linecap="round" stroke-linejoin="round"/>
<path d="M1 13C1 13 2.82843 13 4 13M4 13C4 12.1716 4.67157 11.5 5.5 11.5C6.32843 11.5 7 12.1716 7 13M4 13C4 13.8284 4.67157 14.5 5.5 14.5C6.32843 14.5 7 13.8284 7 13M7 13C10.5147 13 16 13 16 13" stroke="#E7D5A1" stroke-linecap="round" stroke-linejoin="round"/>
</svg>
