<svg width="131" height="178" viewBox="0 0 131 178" fill="none" xmlns="http://www.w3.org/2000/svg">
<path d="M116.067 77.2871C116.806 81.0322 117.195 84.9085 117.195 88.878C117.195 92.8475 116.806 96.7238 116.067 100.469M116.067 77.2871H126.594V100.469H116.067M116.067 77.2871C114.04 67.0279 109.377 57.7529 102.835 50.2416M116.067 100.469C114.211 109.865 110.142 118.436 104.445 125.583M104.445 125.583C94.1028 138.555 78.3923 146.833 60.8005 146.833C43.2086 146.833 27.4981 138.555 17.156 125.583M104.445 125.583L96.5168 173.878H30.7236L17.156 125.583M17.156 125.583C9.18776 115.588 4.40625 102.807 4.40625 88.878C4.40625 74.0348 9.83614 60.4949 18.766 50.2416M18.766 50.2416C29.0921 38.3851 44.0984 30.9234 60.8005 30.9234C77.5026 30.9234 92.5088 38.3851 102.835 50.2416M18.766 50.2416L30.7236 3.87799H92.7572L102.835 50.2416M60.8005 54.1053V88.878H30.7236" stroke="#E7D5A1" stroke-width="7.08333" stroke-linecap="round" stroke-linejoin="round"/>
</svg>
