<svg width="155" height="61" viewBox="0 0 155 61" fill="none" xmlns="http://www.w3.org/2000/svg">
<path d="M2.0894 0C2.9775 0.0419979 4.14048 0.0839959 5.57835 0.125994C7.01622 0.167992 8.43295 0.188991 9.82852 0.188991C11.8162 0.188991 13.7192 0.167992 15.5377 0.125994C17.3562 0.0839959 18.646 0.0629969 19.4073 0.0629969C24.5244 0.0629969 28.3517 1.21796 30.8891 3.52787C33.4265 5.83779 34.6952 8.81968 34.6952 12.4735C34.6952 13.9855 34.4415 15.5814 33.934 17.2614C33.4265 18.8993 32.5384 20.4323 31.2697 21.8602C30.0433 23.2462 28.3517 24.3801 26.1949 25.2621C24.0381 26.1441 21.3103 26.585 18.0117 26.585H11.9219V25.3251H17.3773C20.3799 25.3251 22.6636 24.7581 24.2284 23.6241C25.8354 22.4902 26.9138 20.9992 27.4636 19.1513C28.0556 17.3034 28.3517 15.3084 28.3517 13.1665C28.3517 9.17667 27.5481 6.19477 25.9411 4.22085C24.3764 2.24692 21.6698 1.25995 17.8214 1.25995C15.876 1.25995 14.6073 1.61694 14.0153 2.33092C13.4232 3.04489 13.1272 4.49383 13.1272 6.67776V37.9246C13.1272 39.4366 13.2752 40.5705 13.5712 41.3265C13.9095 42.0825 14.5439 42.5865 15.4743 42.8385C16.4047 43.0904 17.758 43.2584 19.5341 43.3424V44.6024C18.4346 44.5184 17.039 44.4764 15.3474 44.4764C13.6558 44.4344 11.943 44.4134 10.2091 44.4134C8.55982 44.4134 7.01622 44.4344 5.57835 44.4764C4.14048 44.4764 2.9775 44.5184 2.0894 44.6024V43.3424C3.52727 43.2584 4.60568 43.0904 5.32461 42.8385C6.08583 42.5865 6.59332 42.0825 6.84706 41.3265C7.1008 40.5705 7.22767 39.4366 7.22767 37.9246V6.67776C7.22767 5.12381 7.1008 3.98985 6.84706 3.27588C6.59332 2.51991 6.08583 2.01593 5.32461 1.76394C4.60568 1.46995 3.52727 1.30195 2.0894 1.25995V0Z" fill="#E7D5A1"/>
<path d="M46.9992 4.41661C49.2321 4.41661 50.9829 5.08439 52.2516 6.41994C53.5204 7.75549 54.1547 9.87222 54.1547 12.7701H41.0236L40.9475 12.0519H50.1202C50.1456 10.8172 50.0441 9.68322 49.8157 8.65006C49.5874 7.5917 49.2321 6.74753 48.75 6.11755C48.2679 5.48757 47.6335 5.17258 46.847 5.17258C45.7559 5.17258 44.8043 5.75216 43.9924 6.91132C43.2058 8.04528 42.7237 9.87221 42.546 12.3921L42.6602 12.5811C42.6348 12.9339 42.6095 13.3245 42.5841 13.7529C42.5587 14.1561 42.546 14.5592 42.546 14.9624C42.546 16.7012 42.8125 18.1627 43.3453 19.3471C43.8782 20.5314 44.576 21.426 45.4387 22.0308C46.3014 22.6104 47.1768 22.9001 48.0649 22.9001C48.75 22.9001 49.4097 22.7994 50.0441 22.5978C50.7038 22.371 51.3255 22.0056 51.9091 21.5016C52.4927 20.9724 53.0129 20.2542 53.4696 19.3471L54.2308 19.6495C53.9263 20.5062 53.4569 21.3504 52.8226 22.182C52.1882 23.0135 51.3762 23.6939 50.3867 24.2231C49.3971 24.7271 48.2425 24.9791 46.9231 24.9791C45.1469 24.9791 43.5991 24.5885 42.2796 23.8073C40.9601 23.0009 39.9452 21.8544 39.2347 20.3676C38.5242 18.8809 38.169 17.117 38.169 15.0758C38.169 12.8331 38.5369 10.918 39.2728 9.33044C40.0086 7.74289 41.0363 6.53334 42.3557 5.70177C43.7006 4.845 45.2484 4.41661 46.9992 4.41661Z" fill="#E7D5A1"/>
<path d="M83.2671 4.94579V5.73956C82.4805 5.73956 81.8842 5.82776 81.4782 6.00415C81.0722 6.15535 80.7931 6.45774 80.6409 6.91132C80.514 7.33971 80.4506 7.99488 80.4506 8.87685V20.5566C80.4506 21.4134 80.514 22.0686 80.6409 22.5222C80.7931 22.9505 81.0722 23.2403 81.4782 23.3915C81.8842 23.5427 82.4805 23.6435 83.2671 23.6939V24.4499C82.7089 24.3995 81.9984 24.3743 81.1357 24.3743C80.273 24.3491 79.3849 24.3365 78.4714 24.3365C77.4818 24.3365 76.5303 24.3491 75.6168 24.3743C74.7033 24.3743 73.9802 24.3995 73.4473 24.4499V23.6939C74.2339 23.6435 74.8302 23.5427 75.2362 23.3915C75.6676 23.2403 75.9594 22.9505 76.1116 22.5222C76.2638 22.0686 76.34 21.4134 76.34 20.5566V7.13811L69.1844 24.6389H68.5755L61.6483 7.36491V19.9897C61.6483 20.922 61.7244 21.6528 61.8767 22.182C62.0543 22.7112 62.3715 23.0891 62.8282 23.3159C63.285 23.5175 63.9701 23.6435 64.8835 23.6939V24.4499C64.4014 24.3995 63.8432 24.3743 63.2088 24.3743C62.5998 24.3491 61.9528 24.3365 61.2677 24.3365C60.6587 24.3365 60.0371 24.3491 59.4027 24.3743C58.7937 24.3743 58.2862 24.3995 57.8803 24.4499V23.6939C58.6922 23.6435 59.3139 23.5049 59.7453 23.2781C60.1766 23.0513 60.4557 22.6734 60.5826 22.1442C60.7348 21.5898 60.811 20.8464 60.811 19.9141V8.95245C60.811 8.02008 60.7348 7.33971 60.5826 6.91132C60.4557 6.45774 60.1766 6.15535 59.7453 6.00415C59.3139 5.82776 58.6922 5.72696 57.8803 5.70177V4.94579C58.2862 4.97099 58.7937 4.99619 59.4027 5.02139C60.0371 5.04659 60.6587 5.05919 61.2677 5.05919C62.6633 5.05919 63.8812 5.02139 64.9216 4.94579L70.745 20.0274L69.9837 20.7834L76.34 5.05919C76.6698 5.05919 77.0251 5.07179 77.4057 5.09699C77.7863 5.09699 78.1669 5.09699 78.5475 5.09699C79.461 5.09699 80.3237 5.08439 81.1357 5.05919C81.973 5.00879 82.6835 4.97099 83.2671 4.94579Z" fill="#E7D5A1"/>
<path d="M96.0063 4.41661C97.7064 4.41661 99.2162 4.7694 100.536 5.47497C101.855 6.18055 102.908 7.28931 103.695 8.80125C104.481 10.3132 104.875 12.2913 104.875 14.7356C104.875 17.18 104.481 19.1581 103.695 20.67C102.908 22.1568 101.855 23.2529 100.536 23.9585C99.2162 24.6389 97.7064 24.9791 96.0063 24.9791C94.3316 24.9791 92.8219 24.6389 91.477 23.9585C90.1322 23.2529 89.0665 22.1568 88.2799 20.67C87.5187 19.1581 87.1381 17.18 87.1381 14.7356C87.1381 12.2913 87.5187 10.3132 88.2799 8.80125C89.0665 7.28931 90.1322 6.18055 91.477 5.47497C92.8219 4.7694 94.3316 4.41661 96.0063 4.41661ZM96.0063 5.17258C94.6869 5.17258 93.6085 5.92856 92.7711 7.4405C91.9338 8.92725 91.5151 11.359 91.5151 14.7356C91.5151 18.1123 91.9338 20.544 92.7711 22.0308C93.6085 23.4923 94.6869 24.2231 96.0063 24.2231C97.3004 24.2231 98.3661 23.4923 99.2035 22.0308C100.066 20.544 100.498 18.1123 100.498 14.7356C100.498 11.359 100.066 8.92725 99.2035 7.4405C98.3661 5.92856 97.3004 5.17258 96.0063 5.17258Z" fill="#E7D5A1"/>
<path d="M130.212 4.98359V5.77736C129.223 5.77736 128.512 5.96636 128.081 6.34434C127.675 6.72233 127.472 7.4405 127.472 8.49886V20.9346C127.472 21.993 127.675 22.7112 128.081 23.0891C128.512 23.4671 129.223 23.6561 130.212 23.6561V24.4499C129.781 24.4247 129.109 24.3995 128.195 24.3743C127.282 24.3239 126.381 24.2987 125.493 24.2987C124.63 24.2987 123.767 24.3239 122.905 24.3743C122.067 24.3995 121.433 24.4247 121.002 24.4499V23.6561C121.864 23.6561 122.473 23.4671 122.828 23.0891C123.184 22.7112 123.361 21.993 123.361 20.9346V8.49886C123.361 7.4405 123.184 6.72233 122.828 6.34434C122.473 5.96636 121.864 5.77736 121.002 5.77736V4.98359C121.433 5.00879 122.055 5.04659 122.867 5.09699C123.704 5.12219 124.554 5.13479 125.417 5.13479C126.305 5.13479 127.206 5.12219 128.119 5.09699C129.058 5.04659 129.756 5.00879 130.212 4.98359ZM117.919 4.98359V5.77736C117.081 5.77736 116.472 5.96636 116.092 6.34434C115.736 6.72233 115.559 7.4405 115.559 8.49886V20.9346C115.559 21.993 115.736 22.7112 116.092 23.0891C116.472 23.4671 117.081 23.6561 117.919 23.6561V24.4499C117.513 24.4247 116.891 24.3995 116.054 24.3743C115.242 24.3239 114.392 24.2987 113.504 24.2987C112.641 24.2987 111.74 24.3239 110.801 24.3743C109.862 24.3995 109.165 24.4247 108.708 24.4499V23.6561C109.697 23.6561 110.395 23.4671 110.801 23.0891C111.233 22.7112 111.448 21.993 111.448 20.9346V8.49886C111.448 7.4405 111.233 6.72233 110.801 6.34434C110.395 5.96636 109.697 5.77736 108.708 5.77736V4.98359C109.165 5.00879 109.85 5.04659 110.763 5.09699C111.677 5.12219 112.565 5.13479 113.427 5.13479C114.315 5.13479 115.178 5.12219 116.016 5.09699C116.878 5.04659 117.513 5.00879 117.919 4.98359ZM124.732 14.0553V14.8112H113.998V14.0553H124.732Z" fill="#E7D5A1"/>
<path d="M152.749 4.98359C152.648 5.94116 152.572 6.84832 152.521 7.70509C152.495 8.56186 152.483 9.21704 152.483 9.67062C152.483 10.1494 152.495 10.603 152.521 11.0314C152.546 11.4598 152.572 11.8125 152.597 12.0897H151.721C151.518 10.3258 151.189 8.99025 150.732 8.08308C150.301 7.17591 149.742 6.55854 149.057 6.23095C148.372 5.90336 147.56 5.73956 146.621 5.73956H145.213V20.5566C145.213 21.7914 145.556 22.623 146.241 23.0513C146.951 23.4545 147.903 23.6561 149.095 23.6561V24.4499C148.486 24.4247 147.649 24.3995 146.583 24.3743C145.517 24.3239 144.376 24.2987 143.158 24.2987C141.965 24.2987 140.823 24.3239 139.732 24.3743C138.666 24.3995 137.829 24.4247 137.22 24.4499V23.6561C138.438 23.6561 139.39 23.4671 140.075 23.0891C140.76 22.686 141.102 21.867 141.102 20.6322V5.73956H139.39C138.451 5.73956 137.664 5.90336 137.03 6.23095C136.395 6.55854 135.875 7.18851 135.469 8.12088C135.089 9.02805 134.797 10.3636 134.594 12.1275H133.718C133.769 11.8503 133.795 11.4976 133.795 11.0692C133.82 10.6408 133.833 10.1872 133.833 9.70842C133.833 9.25484 133.807 8.59966 133.757 7.74289C133.731 6.86092 133.668 5.95376 133.566 5.02139H137.334C138.146 5.02139 139.06 5.03399 140.075 5.05919C141.09 5.08439 142.105 5.09699 143.12 5.09699C144.135 5.09699 145.15 5.08439 146.165 5.05919C147.205 5.00879 148.131 4.98359 148.943 4.98359H152.749Z" fill="#E7D5A1"/>
<path d="M55.5299 27.9725V28.7343C54.5315 28.7343 53.8131 28.9157 53.3748 29.2784C52.9608 29.6412 52.7538 30.3304 52.7538 31.3461V43.2441C52.7538 44.2598 52.9608 44.949 53.3748 45.3118C53.8131 45.6745 54.5315 45.8559 55.5299 45.8559V46.6176C55.1159 46.5935 54.5071 46.5693 53.7035 46.5451C52.8999 46.4967 51.999 46.4725 51.0006 46.4725C50.0265 46.4725 49.016 46.4967 47.9689 46.5451C46.9461 46.5693 46.1547 46.5935 45.5946 46.6176V45.8559C46.8122 45.8559 47.7619 45.6624 48.4437 45.2755C49.1255 44.8644 49.4664 44.0663 49.4664 42.8814V31.3461C49.4664 30.3304 49.2838 29.6412 48.9186 29.2784C48.5533 28.9157 47.9323 28.7343 47.0557 28.7343V27.9725C47.4453 27.9967 48.0176 28.033 48.7724 28.0814C49.5517 28.1056 50.3431 28.1176 51.1467 28.1176C51.9503 28.1176 52.7782 28.1056 53.6305 28.0814C54.4828 28.033 55.1159 27.9967 55.5299 27.9725ZM44.9737 27.9725V28.7343C44.0971 28.7343 43.4761 28.9157 43.1108 29.2784C42.7456 29.6412 42.5629 30.3304 42.5629 31.3461V34.1755C42.5629 35.0219 42.6116 35.7595 42.709 36.3882C42.8308 37.017 43.1108 37.5006 43.5492 37.8392C43.9875 38.1778 44.6936 38.3471 45.6677 38.3471C46.4469 38.3471 47.1896 38.2503 47.8958 38.0569C48.602 37.8392 49.1864 37.5611 49.6491 37.2225V37.9843C49.1621 38.3229 48.4072 38.6614 47.3844 39C46.386 39.3386 45.3511 39.5078 44.2797 39.5078C43.4274 39.5078 42.6725 39.3869 42.015 39.1451C41.3819 38.8791 40.8705 38.5405 40.4809 38.1294C40.0183 37.6457 39.7017 37.017 39.5312 36.2431C39.3608 35.4693 39.2756 34.514 39.2756 33.3774V31.3461C39.2756 30.3304 39.0564 29.6412 38.6181 29.2784C38.2041 28.9157 37.4979 28.7343 36.4995 28.7343V27.9725C36.9135 27.9967 37.5466 28.033 38.3989 28.0814C39.2512 28.1056 40.0791 28.1176 40.8827 28.1176C41.6863 28.1176 42.4655 28.1056 43.2204 28.0814C43.9996 28.033 44.5841 27.9967 44.9737 27.9725Z" fill="#E7D5A1"/>
<path d="M62.8509 46.8716C61.8525 46.8716 60.988 46.6902 60.2575 46.3274C59.5269 45.9405 58.9669 45.4085 58.5772 44.7314C58.212 44.0542 58.0293 43.2683 58.0293 42.3735C58.0293 41.3095 58.2729 40.4389 58.7599 39.7618C59.2713 39.0846 59.9166 38.5405 60.6958 38.1294C61.475 37.7183 62.2908 37.3797 63.1431 37.1137C64.0197 36.8235 64.8476 36.5575 65.6269 36.3157C66.4061 36.0497 67.0392 35.7474 67.5262 35.4088C68.0376 35.0703 68.2933 34.6229 68.2933 34.0667V31.8176C68.2933 30.802 68.135 30.0281 67.8185 29.4961C67.5262 28.964 67.1245 28.6134 66.6131 28.4441C66.1017 28.2506 65.5295 28.1539 64.8963 28.1539C64.2876 28.1539 63.6301 28.2386 62.9239 28.4078C62.2421 28.5771 61.6942 28.9278 61.2802 29.4598C61.7429 29.5565 62.1447 29.7984 62.4856 30.1853C62.8265 30.5722 62.997 31.068 62.997 31.6725C62.997 32.2771 62.8021 32.7608 62.4125 33.1235C62.0229 33.4621 61.5237 33.6314 60.9149 33.6314C60.2088 33.6314 59.6852 33.4137 59.3443 32.9784C59.0277 32.519 58.8695 32.0111 58.8695 31.4549C58.8695 30.8261 59.0277 30.3183 59.3443 29.9314C59.6609 29.5444 60.0627 29.1817 60.5497 28.8431C61.1098 28.4562 61.8281 28.1297 62.7047 27.8637C63.6057 27.5735 64.6163 27.4284 65.7364 27.4284C66.7348 27.4284 67.5871 27.5493 68.2933 27.7912C68.9995 28.0088 69.5839 28.3353 70.0466 28.7706C70.6797 29.351 71.0937 30.0644 71.2885 30.9108C71.4833 31.733 71.5807 32.7245 71.5807 33.8853V43.9696C71.5807 44.5742 71.6659 45.0095 71.8364 45.2755C72.0312 45.5415 72.3234 45.6745 72.713 45.6745C72.9809 45.6745 73.2366 45.614 73.4801 45.4931C73.7236 45.3722 74.0158 45.1787 74.3567 44.9127L74.7585 45.5294C74.2471 45.9163 73.7601 46.2428 73.2974 46.5088C72.8348 46.7506 72.2138 46.8716 71.4346 46.8716C70.7284 46.8716 70.144 46.7506 69.6813 46.5088C69.2186 46.267 68.8655 45.9163 68.622 45.4569C68.4029 44.9732 68.2933 44.3686 68.2933 43.6431C67.6358 44.7314 66.8444 45.5415 65.9191 46.0735C65.0181 46.6055 63.9954 46.8716 62.8509 46.8716ZM64.1658 45.4206C64.9694 45.4206 65.7121 45.1908 66.3939 44.7314C67.1001 44.2719 67.7332 43.5827 68.2933 42.6637V35.5539C68.0011 35.965 67.575 36.3157 67.0149 36.6059C66.4548 36.8719 65.846 37.15 65.1885 37.4402C64.5311 37.7062 63.8979 38.0327 63.2892 38.4196C62.7047 38.7823 62.2177 39.266 61.8281 39.8706C61.4385 40.4752 61.2437 41.2611 61.2437 42.2284C61.2437 43.1957 61.4994 43.9696 62.0107 44.55C62.5465 45.1304 63.2648 45.4206 64.1658 45.4206Z" fill="#E7D5A1"/>
<path d="M84.9876 27.4284C85.7669 27.4284 86.5218 27.5252 87.2523 27.7186C87.9828 27.9121 88.6403 28.2023 89.2247 28.5892C89.7848 28.952 90.2109 29.3752 90.5031 29.8588C90.7954 30.3183 90.9415 30.8261 90.9415 31.3823C90.9415 32.0353 90.7588 32.5431 90.3936 32.9059C90.0283 33.2444 89.5656 33.4137 89.0055 33.4137C88.4698 33.4137 87.995 33.2565 87.581 32.9422C87.1914 32.6278 86.9966 32.1804 86.9966 31.6C86.9966 31.0438 87.1427 30.5964 87.4349 30.2578C87.7515 29.9193 88.1167 29.7016 88.5307 29.6049C88.2872 29.1696 87.8489 28.8069 87.2158 28.5167C86.607 28.2265 85.9495 28.0814 85.2433 28.0814C84.6345 28.0814 84.0258 28.2265 83.417 28.5167C82.8082 28.8069 82.2481 29.2905 81.7368 29.9676C81.2254 30.6206 80.8114 31.5274 80.4949 32.6882C80.1783 33.8248 80.02 35.2516 80.02 36.9686C80.02 39.0967 80.2635 40.7895 80.7506 42.0471C81.2376 43.3046 81.8707 44.2114 82.6499 44.7676C83.4535 45.2997 84.3302 45.5657 85.2798 45.5657C85.913 45.5657 86.5583 45.4448 87.2158 45.2029C87.8732 44.9611 88.4942 44.5742 89.0786 44.0421C89.663 43.4859 90.1622 42.7484 90.5762 41.8294L91.2702 42.0833C91.0267 42.8572 90.6249 43.6431 90.0648 44.4412C89.5048 45.215 88.7742 45.8559 87.8732 46.3637C86.9722 46.8716 85.8643 47.1255 84.5493 47.1255C83.0396 47.1255 81.6759 46.7386 80.4583 45.9647C79.2408 45.1908 78.2667 44.0905 77.5362 42.6637C76.83 41.2127 76.477 39.4957 76.477 37.5127C76.477 35.5297 76.83 33.7886 77.5362 32.2892C78.2667 30.7657 79.2773 29.5807 80.5679 28.7343C81.8585 27.8637 83.3318 27.4284 84.9876 27.4284Z" fill="#E7D5A1"/>
<path d="M102.569 27.4284C104.127 27.4284 105.528 27.767 106.769 28.4441C108.011 29.1212 108.998 30.1853 109.728 31.6363C110.483 33.0873 110.86 34.9735 110.86 37.2951C110.86 39.6167 110.483 41.5029 109.728 42.9539C108.998 44.3807 108.011 45.4327 106.769 46.1098C105.528 46.7869 104.127 47.1255 102.569 47.1255C101.035 47.1255 99.6346 46.7869 98.3683 46.1098C97.1264 45.4327 96.128 44.3807 95.3732 42.9539C94.6426 41.5029 94.2774 39.6167 94.2774 37.2951C94.2774 34.9735 94.6426 33.0873 95.3732 31.6363C96.128 30.1853 97.1264 29.1212 98.3683 28.4441C99.6346 27.767 101.035 27.4284 102.569 27.4284ZM102.569 28.1539C101.181 28.1539 100.036 28.8673 99.1354 30.2941C98.2587 31.7209 97.8204 34.0546 97.8204 37.2951C97.8204 40.5356 98.2587 42.8693 99.1354 44.2961C100.036 45.6987 101.181 46.4 102.569 46.4C103.957 46.4 105.089 45.6987 105.966 44.2961C106.867 42.8693 107.317 40.5356 107.317 37.2951C107.317 34.0546 106.867 31.7209 105.966 30.2941C105.089 28.8673 103.957 28.1539 102.569 28.1539Z" fill="#E7D5A1"/>
<path d="M122.726 27.9725C124.528 27.9725 125.94 28.1539 126.963 28.5167C128.01 28.8794 128.753 29.3993 129.191 30.0765C129.63 30.7294 129.849 31.4912 129.849 32.3618C129.849 33.6193 129.179 34.7196 127.84 35.6627C126.525 36.6059 124.528 37.0774 121.849 37.0774C121.849 37.0774 121.789 37.0533 121.667 37.0049C121.569 36.9565 121.46 36.9082 121.338 36.8598C121.216 36.8114 121.155 36.7872 121.155 36.7872C122.617 36.7631 123.724 36.6059 124.479 36.3157C125.259 36.0013 125.782 35.5418 126.05 34.9373C126.342 34.3327 126.488 33.5709 126.488 32.652C126.488 31.9023 126.379 31.2373 126.16 30.6569C125.965 30.0523 125.563 29.5807 124.954 29.2422C124.37 28.9036 123.505 28.7343 122.361 28.7343C121.387 28.7343 120.693 28.9278 120.279 29.3147C119.889 29.6774 119.694 30.3546 119.694 31.3461V43.2441C119.694 44.2598 119.889 44.949 120.279 45.3118C120.693 45.6745 121.423 45.8559 122.47 45.8559C123.834 45.8559 124.881 45.6503 125.612 45.2392C126.367 44.8281 126.878 44.284 127.146 43.6069C127.438 42.9297 127.584 42.1921 127.584 41.3941C127.584 39.8464 127.146 38.7944 126.269 38.2382C125.417 37.682 124.321 37.4039 122.982 37.4039H117.43C117.43 37.4039 117.43 37.3072 117.43 37.1137C117.43 36.8961 117.43 36.7872 117.43 36.7872H122.653L122.982 36.8598C124.93 36.8598 126.488 37.0412 127.657 37.4039C128.85 37.7425 129.703 38.2503 130.214 38.9274C130.75 39.5804 131.018 40.3905 131.018 41.3578C131.018 42.3252 130.75 43.2078 130.214 44.0059C129.703 44.8039 128.85 45.4448 127.657 45.9284C126.464 46.3879 124.857 46.6176 122.836 46.6176C122.081 46.6176 121.302 46.5935 120.498 46.5451C119.694 46.4967 118.842 46.4725 117.941 46.4725C117.186 46.4725 116.383 46.4967 115.53 46.5451C114.678 46.5693 114.045 46.5935 113.631 46.6176V45.8559C114.629 45.8559 115.336 45.6745 115.75 45.3118C116.188 44.949 116.407 44.2598 116.407 43.2441V31.3461C116.407 30.3304 116.188 29.6412 115.75 29.2784C115.336 28.9157 114.629 28.7343 113.631 28.7343V27.9725C114.045 27.9967 114.678 28.033 115.53 28.0814C116.383 28.1056 117.186 28.1176 117.941 28.1176C118.818 28.1176 119.67 28.0935 120.498 28.0451C121.326 27.9967 122.069 27.9725 122.726 27.9725Z" fill="#E7D5A1"/>
<path d="M10.9624 50.6054V51.0188C10.4206 51.0188 10.0307 51.1172 9.79284 51.3141C9.56818 51.511 9.45584 51.885 9.45584 52.4362V58.8935C9.45584 59.4447 9.56818 59.8188 9.79284 60.0157C10.0307 60.2125 10.4206 60.311 10.9624 60.311V60.7244C10.7378 60.7113 10.3942 60.6981 9.93161 60.685C9.46906 60.6588 9.01972 60.6456 8.5836 60.6456C8.14749 60.6456 7.71798 60.6588 7.29507 60.685C6.88539 60.6981 6.57482 60.7113 6.36337 60.7244V60.311C6.83913 60.311 7.17613 60.2125 7.37437 60.0157C7.5726 59.8188 7.67172 59.4447 7.67172 58.8935V52.4362C7.67172 51.885 7.5726 51.511 7.37437 51.3141C7.17613 51.1172 6.83913 51.0188 6.36337 51.0188V50.6054C6.57482 50.6185 6.88539 50.6382 7.29507 50.6644C7.71798 50.6776 8.14749 50.6841 8.5836 50.6841C9.01972 50.6841 9.46906 50.6776 9.93161 50.6644C10.3942 50.6382 10.7378 50.6185 10.9624 50.6054ZM4.59907 50.6054V51.0188C4.1233 51.0188 3.7863 51.1172 3.58807 51.3141C3.38983 51.511 3.29071 51.885 3.29071 52.4362V58.8935C3.29071 59.4447 3.38983 59.8188 3.58807 60.0157C3.7863 60.2125 4.1233 60.311 4.59907 60.311V60.7244C4.38762 60.7113 4.07044 60.6981 3.64754 60.685C3.23785 60.6588 2.81495 60.6456 2.37883 60.6456C1.94271 60.6456 1.49338 60.6588 1.03083 60.685C0.568276 60.6981 0.224667 60.7113 0 60.7244V60.311C0.541844 60.311 0.9251 60.2125 1.14977 60.0157C1.38765 59.8188 1.50659 59.4447 1.50659 58.8935V52.4362C1.50659 51.885 1.38765 51.511 1.14977 51.3141C0.9251 51.1172 0.541844 51.0188 0 51.0188V50.6054C0.224667 50.6185 0.568276 50.6382 1.03083 50.6644C1.49338 50.6776 1.94271 50.6841 2.37883 50.6841C2.81495 50.6841 3.23785 50.6776 3.64754 50.6644C4.07044 50.6382 4.38762 50.6185 4.59907 50.6054ZM8.22678 55.3105V55.7043H2.63653V55.3105H8.22678Z" fill="#E7D5A1"/>
<path d="M14.9337 60.8622C14.3918 60.8622 13.9226 60.7638 13.5262 60.5669C13.1297 60.3569 12.8257 60.0682 12.6143 59.7007C12.4161 59.3332 12.3169 58.9066 12.3169 58.421C12.3169 57.8436 12.4491 57.3711 12.7134 57.0036C12.9909 56.6361 13.3412 56.3408 13.7641 56.1177C14.187 55.8946 14.6297 55.7108 15.0922 55.5664C15.568 55.409 16.0173 55.2646 16.4402 55.1333C16.8631 54.989 17.2068 54.8249 17.4711 54.6412C17.7486 54.4574 17.8874 54.2146 17.8874 53.9128V52.6922C17.8874 52.1409 17.8015 51.721 17.6297 51.4322C17.4711 51.1435 17.253 50.9532 16.9755 50.8613C16.6979 50.7563 16.3874 50.7038 16.0438 50.7038C15.7134 50.7038 15.3566 50.7497 14.9733 50.8416C14.6033 50.9335 14.3059 51.1238 14.0812 51.4125C14.3323 51.465 14.5504 51.5963 14.7354 51.8063C14.9204 52.0163 15.0129 52.2853 15.0129 52.6134C15.0129 52.9415 14.9072 53.204 14.6958 53.4009C14.4843 53.5846 14.2134 53.6765 13.883 53.6765C13.4997 53.6765 13.2156 53.5584 13.0306 53.3222C12.8588 53.0728 12.7729 52.7972 12.7729 52.4953C12.7729 52.1541 12.8588 51.8785 13.0306 51.6685C13.2024 51.4585 13.4205 51.2616 13.6848 51.0779C13.9887 50.8679 14.3786 50.6907 14.8544 50.5463C15.3433 50.3888 15.8918 50.3101 16.4997 50.3101C17.0416 50.3101 17.5041 50.3757 17.8874 50.5069C18.2706 50.6251 18.5878 50.8022 18.8389 51.0385C19.1825 51.3535 19.4072 51.7406 19.5129 52.2C19.6186 52.6462 19.6715 53.1843 19.6715 53.8143V59.2872C19.6715 59.6154 19.7177 59.8516 19.8102 59.996C19.916 60.1403 20.0746 60.2125 20.286 60.2125C20.4314 60.2125 20.5702 60.1797 20.7023 60.1141C20.8345 60.0485 20.9931 59.9435 21.1781 59.7991L21.3961 60.1338C21.1186 60.3438 20.8543 60.521 20.6032 60.6653C20.3521 60.7966 20.0151 60.8622 19.5922 60.8622C19.2089 60.8622 18.8918 60.7966 18.6407 60.6653C18.3896 60.5341 18.1979 60.3438 18.0658 60.0944C17.9468 59.8319 17.8874 59.5038 17.8874 59.1101C17.5305 59.7007 17.101 60.1403 16.5988 60.4291C16.1098 60.7178 15.5548 60.8622 14.9337 60.8622ZM15.6473 60.0747C16.0834 60.0747 16.4865 59.95 16.8565 59.7007C17.2398 59.4513 17.5834 59.0773 17.8874 58.5785V54.7199C17.7288 54.943 17.4975 55.1333 17.1935 55.2908C16.8896 55.4352 16.5592 55.5861 16.2024 55.7436C15.8455 55.888 15.5019 56.0652 15.1715 56.2752C14.8544 56.472 14.59 56.7345 14.3786 57.0626C14.1671 57.3908 14.0614 57.8173 14.0614 58.3423C14.0614 58.8673 14.2002 59.2872 14.4777 59.6022C14.7685 59.9172 15.1583 60.0747 15.6473 60.0747Z" fill="#E7D5A1"/>
<path d="M32.7564 46.6877L37.5934 59.0707C37.7916 59.5694 38.0163 59.9041 38.2674 60.0747C38.5185 60.2322 38.7498 60.3175 38.9612 60.3307V60.7244C38.6969 60.6981 38.3731 60.685 37.9899 60.685C37.6066 60.6719 37.2233 60.6653 36.8401 60.6653C36.3247 60.6653 35.8423 60.6719 35.393 60.685C34.9436 60.685 34.5802 60.6981 34.3027 60.7244V60.3307C34.9767 60.3044 35.4062 60.1928 35.5912 59.996C35.7762 59.786 35.7366 59.3463 35.4723 58.677L31.7851 48.8926L32.1023 48.6367L28.653 57.5351C28.4415 58.0601 28.316 58.5063 28.2763 58.8738C28.2367 59.2282 28.2697 59.5104 28.3754 59.7204C28.4944 59.9304 28.686 60.0813 28.9503 60.1732C29.2278 60.265 29.5714 60.3175 29.9811 60.3307V60.7244C29.6111 60.6981 29.2212 60.685 28.8115 60.685C28.4151 60.6719 28.045 60.6653 27.7014 60.6653C27.371 60.6653 27.0869 60.6719 26.849 60.685C26.6243 60.685 26.4129 60.6981 26.2147 60.7244V60.3307C26.479 60.265 26.7499 60.1141 27.0274 59.8779C27.3049 59.6285 27.556 59.2085 27.7807 58.6179L32.4393 46.6877C32.4921 46.6877 32.545 46.6877 32.5978 46.6877C32.6507 46.6877 32.7036 46.6877 32.7564 46.6877ZM35.1749 55.0546V55.4483H29.2675L29.4657 55.0546H35.1749Z" fill="#E7D5A1"/>
<path d="M49.4257 50.6054V51.0188C48.8839 51.0188 48.494 51.1172 48.2561 51.3141C48.0315 51.511 47.9191 51.885 47.9191 52.4362V58.8935C47.9191 59.4447 48.0315 59.8188 48.2561 60.0157C48.494 60.2125 48.8839 60.311 49.4257 60.311V60.7244C49.2011 60.7113 48.8707 60.6981 48.4345 60.685C47.9984 60.6588 47.5227 60.6456 47.0073 60.6456C46.4918 60.6456 45.9698 60.6588 45.4412 60.685C44.9258 60.6981 44.5227 60.7113 44.232 60.7244V60.311C44.8267 60.311 45.2892 60.2191 45.6196 60.0353C45.9632 59.8385 46.135 59.4579 46.135 58.8935V52.4362C46.135 51.885 46.0359 51.511 45.8377 51.3141C45.6394 51.1172 45.3024 51.0188 44.8267 51.0188H44.6482C44.3179 51.0188 44.0998 51.1172 43.9941 51.3141C43.8883 51.511 43.8091 51.885 43.7562 52.4362C43.6505 53.6568 43.5183 54.8249 43.3597 55.9405C43.2143 57.043 42.9632 58.0404 42.6064 58.9329C42.4743 59.2479 42.3091 59.5694 42.1108 59.8975C41.9126 60.2125 41.6681 60.475 41.3774 60.685C41.0998 60.895 40.7628 61 40.3664 61C40.1285 61 39.9038 60.9541 39.6924 60.8622C39.4809 60.7834 39.3091 60.6588 39.1769 60.4881C39.0448 60.3044 38.9787 60.0813 38.9787 59.8188C38.9787 59.4907 39.0778 59.2348 39.2761 59.051C39.4743 58.8673 39.732 58.7754 40.0492 58.7754C40.3267 58.7754 40.558 58.8541 40.743 59.0116C40.9412 59.1691 41.0404 59.4054 41.0404 59.7204C41.0404 59.9304 40.9809 60.1207 40.8619 60.2913C40.743 60.4488 40.5514 60.58 40.2871 60.685C40.3135 60.6981 40.3465 60.7047 40.3862 60.7047C40.439 60.7047 40.4721 60.7047 40.4853 60.7047C40.8157 60.7047 41.0932 60.5997 41.3179 60.3897C41.5558 60.1666 41.754 59.9107 41.9126 59.6219C42.0844 59.3201 42.21 59.0576 42.2892 58.8345C42.5007 58.2832 42.6791 57.6664 42.8245 56.9839C42.9699 56.3014 43.0888 55.573 43.1813 54.7987C43.2738 54.0243 43.3465 53.2368 43.3994 52.4362C43.439 51.885 43.3201 51.511 43.0425 51.3141C42.7782 51.1172 42.3751 51.0188 41.8333 51.0188V50.6054C41.939 50.6185 42.1042 50.6382 42.3289 50.6644C42.5668 50.6776 42.8509 50.6841 43.1813 50.6841C43.4456 50.6841 43.7165 50.6841 43.9941 50.6841C44.2848 50.6841 44.5756 50.6841 44.8663 50.6841C45.1174 50.6841 45.3487 50.6841 45.5601 50.6841C45.7716 50.6841 45.9962 50.6841 46.2341 50.6841C46.472 50.6841 46.7363 50.6841 47.0271 50.6841C47.331 50.6841 47.635 50.6776 47.939 50.6644C48.2561 50.6513 48.5469 50.6382 48.8112 50.6251C49.0755 50.6119 49.2804 50.6054 49.4257 50.6054Z" fill="#E7D5A1"/>
<path d="M55.4021 50.3101C56.5651 50.3101 57.4703 50.6644 58.1179 51.3732C58.7787 52.0688 59.1091 53.1581 59.1091 54.6412H52.1114L52.0915 54.2671H57.206C57.2324 53.624 57.1796 53.0334 57.0474 52.4953C56.9153 51.9441 56.7038 51.5044 56.4131 51.1763C56.1355 50.8482 55.7721 50.6841 55.3228 50.6841C54.7149 50.6841 54.173 50.986 53.6972 51.5897C53.2347 52.1934 52.9572 53.1515 52.8647 54.464L52.9241 54.5427C52.8977 54.7396 52.8779 54.9562 52.8647 55.1924C52.8514 55.4286 52.8448 55.6649 52.8448 55.9011C52.8448 56.7936 52.9902 57.5614 53.2809 58.2045C53.5717 58.8476 53.9483 59.3397 54.4109 59.681C54.8867 60.0091 55.3756 60.1732 55.8778 60.1732C56.2743 60.1732 56.651 60.1141 57.0078 59.996C57.3646 59.8647 57.695 59.6547 57.999 59.366C58.3029 59.0773 58.5672 58.6901 58.7919 58.2045L59.1884 58.362C59.043 58.7951 58.8051 59.2151 58.4747 59.6219C58.1443 60.0288 57.728 60.3635 57.2258 60.6259C56.7236 60.8753 56.1421 61 55.4814 61C54.5298 61 53.7105 60.7834 53.0232 60.3503C52.3492 59.9172 51.8272 59.3201 51.4572 58.5588C51.1004 57.7845 50.9219 56.8986 50.9219 55.9011C50.9219 54.7462 51.107 53.7553 51.477 52.9284C51.847 52.0884 52.3691 51.4453 53.0431 50.9991C53.7171 50.5398 54.5034 50.3101 55.4021 50.3101Z" fill="#E7D5A1"/>
<path d="M69.3353 50.3101C69.7978 50.3101 70.1216 50.4216 70.3066 50.6447C70.5048 50.8679 70.604 51.1172 70.604 51.3928C70.604 51.6816 70.5114 51.931 70.3264 52.1409C70.1414 52.3378 69.8837 52.4362 69.5533 52.4362C69.3154 52.4362 69.1106 52.3838 68.9388 52.2788C68.767 52.1738 68.6348 52.0294 68.5423 51.8456C68.4498 51.6488 68.4035 51.4257 68.4035 51.1763C68.4035 51.15 68.4035 51.1238 68.4035 51.0975C68.4035 51.0713 68.4035 51.0516 68.4035 51.0385C68.2582 51.1041 68.126 51.2222 68.0071 51.3928C67.9013 51.5635 67.789 51.7931 67.6701 52.0819C67.5511 52.3706 67.4124 52.725 67.2538 53.145C67.1216 53.4993 66.9696 53.8406 66.7978 54.1687C66.626 54.4968 66.3881 54.7724 66.0842 54.9955C65.7802 55.2186 65.3639 55.363 64.8353 55.4286L65.0137 55.2908C65.8067 55.2646 66.5005 55.3499 67.0952 55.5468C67.7031 55.7436 68.1789 56.1111 68.5225 56.6492C68.7471 56.9905 68.9322 57.4104 69.0775 57.9092C69.2361 58.4079 69.4013 58.8476 69.5731 59.2282C69.7185 59.5563 69.8837 59.8122 70.0687 59.996C70.267 60.1666 70.5709 60.2716 70.9806 60.311V60.7244C70.7691 60.7638 70.5577 60.7966 70.3463 60.8228C70.1348 60.8491 69.9366 60.8622 69.7515 60.8622C69.1568 60.8622 68.7207 60.7244 68.4432 60.4488C68.1657 60.16 67.9542 59.7729 67.8088 59.2872C67.7428 59.0641 67.6635 58.7951 67.5709 58.4801C67.4784 58.152 67.3661 57.8239 67.2339 57.4958C67.1018 57.1545 66.9432 56.8592 66.7582 56.6098C66.4674 56.203 66.0908 55.9405 65.6282 55.8224C65.1657 55.6911 64.5644 55.6386 63.8243 55.6649V55.3302C64.5512 55.2908 65.1128 55.1727 65.5093 54.9758C65.9058 54.7658 66.2097 54.4771 66.4212 54.1096C66.6326 53.7421 66.8243 53.309 66.9961 52.8103C67.1282 52.4428 67.2736 52.0688 67.4322 51.6881C67.5908 51.2944 67.8154 50.9663 68.1062 50.7038C68.4101 50.4413 68.8198 50.3101 69.3353 50.3101ZM65.2119 50.6054V51.0188C64.7362 51.0188 64.3992 51.1172 64.2009 51.3141C64.0027 51.511 63.9036 51.885 63.9036 52.4362V58.8935C63.9036 59.4447 64.0027 59.8188 64.2009 60.0157C64.3992 60.2125 64.7362 60.311 65.2119 60.311V60.7244C65.0005 60.7113 64.6833 60.6981 64.2604 60.685C63.8375 60.6588 63.408 60.6456 62.9719 60.6456C62.5358 60.6456 62.0864 60.6588 61.6239 60.685C61.1745 60.6981 60.8375 60.7113 60.6129 60.7244V60.311C61.1547 60.311 61.538 60.2125 61.7626 60.0157C62.0005 59.8188 62.1195 59.4447 62.1195 58.8935V52.4362C62.1195 51.885 62.0005 51.511 61.7626 51.3141C61.538 51.1172 61.1547 51.0188 60.6129 51.0188V50.6054C60.8375 50.6185 61.1745 50.6382 61.6239 50.6644C62.0864 50.6776 62.5358 50.6841 62.9719 50.6841C63.408 50.6841 63.8375 50.6776 64.2604 50.6644C64.6833 50.6382 65.0005 50.6185 65.2119 50.6054Z" fill="#E7D5A1"/>
<path d="M76.6227 50.3101C77.0456 50.3101 77.4553 50.3626 77.8518 50.4676C78.2483 50.5726 78.6051 50.7301 78.9223 50.9401C79.2262 51.1369 79.4575 51.3666 79.6161 51.6291C79.7747 51.8785 79.854 52.1541 79.854 52.4559C79.854 52.8103 79.7549 53.0859 79.5566 53.2828C79.3584 53.4665 79.1073 53.5584 78.8033 53.5584C78.5126 53.5584 78.2549 53.4731 78.0302 53.3025C77.8188 53.1318 77.713 52.889 77.713 52.5741C77.713 52.2722 77.7923 52.0294 77.9509 51.8456C78.1227 51.6619 78.321 51.5438 78.5456 51.4913C78.4135 51.255 78.1756 51.0582 77.832 50.9007C77.5016 50.7432 77.1448 50.6644 76.7615 50.6644C76.4311 50.6644 76.1007 50.7432 75.7703 50.9007C75.4399 51.0582 75.136 51.3207 74.8584 51.6881C74.5809 52.0425 74.3562 52.5347 74.1844 53.1647C74.0126 53.7815 73.9267 54.5559 73.9267 55.4877C73.9267 56.6427 74.0589 57.5614 74.3232 58.2439C74.5875 58.9263 74.9311 59.4185 75.354 59.7204C75.7901 60.0091 76.2659 60.1535 76.7813 60.1535C77.1249 60.1535 77.4751 60.0878 77.832 59.9566C78.1888 59.8254 78.5258 59.6154 78.843 59.3266C79.1601 59.0248 79.4311 58.6245 79.6557 58.1257L80.0324 58.2635C79.9002 58.6835 79.6822 59.1101 79.3782 59.5432C79.0743 59.9632 78.6778 60.311 78.1888 60.5866C77.6998 60.8622 77.0985 61 76.3848 61C75.5655 61 74.8254 60.79 74.1646 60.37C73.5038 59.95 72.9752 59.3529 72.5787 58.5785C72.1955 57.7911 72.0038 56.8592 72.0038 55.783C72.0038 54.7068 72.1955 53.7618 72.5787 52.9481C72.9752 52.1213 73.5237 51.4782 74.2241 51.0188C74.9245 50.5463 75.7241 50.3101 76.6227 50.3101Z" fill="#E7D5A1"/>
<path d="M86.1247 50.3101C87.2877 50.3101 88.193 50.6644 88.8405 51.3732C89.5013 52.0688 89.8317 53.1581 89.8317 54.6412H82.834L82.8142 54.2671H87.9287C87.9551 53.624 87.9022 53.0334 87.7701 52.4953C87.6379 51.9441 87.4265 51.5044 87.1357 51.1763C86.8582 50.8482 86.4948 50.6841 86.0454 50.6841C85.4375 50.6841 84.8957 50.986 84.4199 51.5897C83.9573 52.1934 83.6798 53.1515 83.5873 54.464L83.6468 54.5427C83.6203 54.7396 83.6005 54.9562 83.5873 55.1924C83.5741 55.4286 83.5675 55.6649 83.5675 55.9011C83.5675 56.7936 83.7129 57.5614 84.0036 58.2045C84.2943 58.8476 84.671 59.3397 85.1335 59.681C85.6093 60.0091 86.0983 60.1732 86.6005 60.1732C86.997 60.1732 87.3736 60.1141 87.7304 59.996C88.0873 59.8647 88.4176 59.6547 88.7216 59.366C89.0256 59.0773 89.2899 58.6901 89.5145 58.2045L89.911 58.362C89.7657 58.7951 89.5278 59.2151 89.1974 59.6219C88.867 60.0288 88.4507 60.3635 87.9485 60.6259C87.4463 60.8753 86.8648 61 86.204 61C85.2525 61 84.4331 60.7834 83.7459 60.3503C83.0719 59.9172 82.5499 59.3201 82.1798 58.5588C81.823 57.7845 81.6446 56.8986 81.6446 55.9011C81.6446 54.7462 81.8296 53.7553 82.1997 52.9284C82.5697 52.0884 83.0917 51.4453 83.7657 50.9991C84.4397 50.5398 85.226 50.3101 86.1247 50.3101Z" fill="#E7D5A1"/>
<path d="M96.1527 50.3101C97.3156 50.3101 98.2209 50.6644 98.8685 51.3732C99.5293 52.0688 99.8597 53.1581 99.8597 54.6412H92.8619L92.8421 54.2671H97.9566C97.983 53.624 97.9302 53.0334 97.798 52.4953C97.6659 51.9441 97.4544 51.5044 97.1637 51.1763C96.8861 50.8482 96.5227 50.6841 96.0734 50.6841C95.4654 50.6841 94.9236 50.986 94.4478 51.5897C93.9853 52.1934 93.7078 53.1515 93.6152 54.464L93.6747 54.5427C93.6483 54.7396 93.6285 54.9562 93.6152 55.1924C93.602 55.4286 93.5954 55.6649 93.5954 55.9011C93.5954 56.7936 93.7408 57.5614 94.0315 58.2045C94.3223 58.8476 94.6989 59.3397 95.1615 59.681C95.6372 60.0091 96.1262 60.1732 96.6284 60.1732C97.0249 60.1732 97.4015 60.1141 97.7584 59.996C98.1152 59.8647 98.4456 59.6547 98.7495 59.366C99.0535 59.0773 99.3178 58.6901 99.5425 58.2045L99.939 58.362C99.7936 58.7951 99.5557 59.2151 99.2253 59.6219C98.8949 60.0288 98.4786 60.3635 97.9764 60.6259C97.4742 60.8753 96.8927 61 96.232 61C95.2804 61 94.4611 60.7834 93.7738 60.3503C93.0998 59.9172 92.5778 59.3201 92.2078 58.5588C91.8509 57.7845 91.6725 56.8986 91.6725 55.9011C91.6725 54.7462 91.8576 53.7553 92.2276 52.9284C92.5976 52.0884 93.1197 51.4453 93.7937 50.9991C94.4677 50.5398 95.254 50.3101 96.1527 50.3101Z" fill="#E7D5A1"/>
<path d="M106.3 50.6054C107.278 50.6054 108.044 50.7038 108.599 50.9007C109.167 51.0975 109.57 51.3797 109.808 51.7472C110.046 52.1016 110.165 52.515 110.165 52.9875C110.165 53.67 109.802 54.2671 109.075 54.779C108.361 55.2908 107.278 55.5468 105.824 55.5468C105.824 55.5468 105.791 55.5336 105.725 55.5074C105.672 55.4811 105.612 55.4549 105.546 55.4286C105.48 55.4024 105.447 55.3893 105.447 55.3893C106.24 55.3761 106.841 55.2908 107.251 55.1333C107.674 54.9627 107.958 54.7134 108.103 54.3852C108.262 54.0571 108.341 53.6437 108.341 53.145C108.341 52.7381 108.282 52.3772 108.163 52.0622C108.057 51.7341 107.839 51.4782 107.509 51.2944C107.192 51.1107 106.722 51.0188 106.101 51.0188C105.573 51.0188 105.196 51.1238 104.971 51.3338C104.76 51.5307 104.654 51.8981 104.654 52.4362V58.8935C104.654 59.4447 104.76 59.8188 104.971 60.0157C105.196 60.2125 105.592 60.311 106.161 60.311C106.901 60.311 107.469 60.1994 107.866 59.9763C108.275 59.7532 108.553 59.4579 108.698 59.0904C108.857 58.7229 108.936 58.3226 108.936 57.8895C108.936 57.0495 108.698 56.4786 108.222 56.1767C107.76 55.8749 107.165 55.7239 106.438 55.7239H103.425C103.425 55.7239 103.425 55.6714 103.425 55.5664C103.425 55.4483 103.425 55.3893 103.425 55.3893H106.26L106.438 55.4286C107.496 55.4286 108.341 55.5271 108.976 55.7239C109.623 55.9077 110.086 56.1833 110.363 56.5508C110.654 56.9051 110.799 57.3448 110.799 57.8698C110.799 58.3948 110.654 58.8738 110.363 59.3069C110.086 59.74 109.623 60.0878 108.976 60.3503C108.328 60.5997 107.456 60.7244 106.359 60.7244C105.949 60.7244 105.526 60.7113 105.09 60.685C104.654 60.6588 104.192 60.6456 103.703 60.6456C103.293 60.6456 102.857 60.6588 102.394 60.685C101.932 60.6981 101.588 60.7113 101.363 60.7244V60.311C101.905 60.311 102.289 60.2125 102.513 60.0157C102.751 59.8188 102.87 59.4447 102.87 58.8935V52.4362C102.87 51.885 102.751 51.511 102.513 51.3141C102.289 51.1172 101.905 51.0188 101.363 51.0188V50.6054C101.588 50.6185 101.932 50.6382 102.394 50.6644C102.857 50.6776 103.293 50.6841 103.703 50.6841C104.178 50.6841 104.641 50.671 105.09 50.6447C105.54 50.6185 105.943 50.6054 106.3 50.6054Z" fill="#E7D5A1"/>
<path d="M117.141 50.3101C117.564 50.3101 117.974 50.3626 118.37 50.4676C118.767 50.5726 119.123 50.7301 119.441 50.9401C119.745 51.1369 119.976 51.3666 120.134 51.6291C120.293 51.8785 120.372 52.1541 120.372 52.4559C120.372 52.8103 120.273 53.0859 120.075 53.2828C119.877 53.4665 119.626 53.5584 119.322 53.5584C119.031 53.5584 118.773 53.4731 118.548 53.3025C118.337 53.1318 118.231 52.889 118.231 52.5741C118.231 52.2722 118.311 52.0294 118.469 51.8456C118.641 51.6619 118.839 51.5438 119.064 51.4913C118.932 51.255 118.694 51.0582 118.35 50.9007C118.02 50.7432 117.663 50.6644 117.28 50.6644C116.949 50.6644 116.619 50.7432 116.289 50.9007C115.958 51.0582 115.654 51.3207 115.377 51.6881C115.099 52.0425 114.875 52.5347 114.703 53.1647C114.531 53.7815 114.445 54.5559 114.445 55.4877C114.445 56.6427 114.577 57.5614 114.841 58.2439C115.106 58.9263 115.449 59.4185 115.872 59.7204C116.308 60.0091 116.784 60.1535 117.3 60.1535C117.643 60.1535 117.993 60.0878 118.35 59.9566C118.707 59.8254 119.044 59.6154 119.361 59.3266C119.678 59.0248 119.949 58.6245 120.174 58.1257L120.551 58.2635C120.419 58.6835 120.2 59.1101 119.896 59.5432C119.593 59.9632 119.196 60.311 118.707 60.5866C118.218 60.8622 117.617 61 116.903 61C116.084 61 115.344 60.79 114.683 60.37C114.022 59.95 113.493 59.3529 113.097 58.5785C112.714 57.7911 112.522 56.8592 112.522 55.783C112.522 54.7068 112.714 53.7618 113.097 52.9481C113.493 52.1213 114.042 51.4782 114.742 51.0188C115.443 50.5463 116.242 50.3101 117.141 50.3101Z" fill="#E7D5A1"/>
<path d="M130.548 50.3101C131.011 50.3101 131.335 50.4216 131.52 50.6447C131.718 50.8679 131.817 51.1172 131.817 51.3928C131.817 51.6816 131.724 51.931 131.539 52.1409C131.354 52.3378 131.097 52.4362 130.766 52.4362C130.528 52.4362 130.324 52.3838 130.152 52.2788C129.98 52.1738 129.848 52.0294 129.755 51.8456C129.663 51.6488 129.617 51.4257 129.617 51.1763C129.617 51.15 129.617 51.1238 129.617 51.0975C129.617 51.0713 129.617 51.0516 129.617 51.0385C129.471 51.1041 129.339 51.2222 129.22 51.3928C129.114 51.5635 129.002 51.7931 128.883 52.0819C128.764 52.3706 128.625 52.725 128.467 53.145C128.335 53.4993 128.183 53.8406 128.011 54.1687C127.839 54.4968 127.601 54.7724 127.297 54.9955C126.993 55.2186 126.577 55.363 126.048 55.4286L126.227 55.2908C127.02 55.2646 127.713 55.3499 128.308 55.5468C128.916 55.7436 129.392 56.1111 129.735 56.6492C129.96 56.9905 130.145 57.4104 130.291 57.9092C130.449 58.4079 130.614 58.8476 130.786 59.2282C130.932 59.5563 131.097 59.8122 131.282 59.996C131.48 60.1666 131.784 60.2716 132.194 60.311V60.7244C131.982 60.7638 131.771 60.7966 131.559 60.8228C131.348 60.8491 131.15 60.8622 130.965 60.8622C130.37 60.8622 129.934 60.7244 129.656 60.4488C129.379 60.16 129.167 59.7729 129.022 59.2872C128.956 59.0641 128.876 58.7951 128.784 58.4801C128.691 58.152 128.579 57.8239 128.447 57.4958C128.315 57.1545 128.156 56.8592 127.971 56.6098C127.68 56.203 127.304 55.9405 126.841 55.8224C126.379 55.6911 125.777 55.6386 125.037 55.6649V55.3302C125.764 55.2908 126.326 55.1727 126.722 54.9758C127.119 54.7658 127.423 54.4771 127.634 54.1096C127.846 53.7421 128.037 53.309 128.209 52.8103C128.341 52.4428 128.487 52.0688 128.645 51.6881C128.804 51.2944 129.028 50.9663 129.319 50.7038C129.623 50.4413 130.033 50.3101 130.548 50.3101ZM126.425 50.6054V51.0188C125.949 51.0188 125.612 51.1172 125.414 51.3141C125.216 51.511 125.117 51.885 125.117 52.4362V58.8935C125.117 59.4447 125.216 59.8188 125.414 60.0157C125.612 60.2125 125.949 60.311 126.425 60.311V60.7244C126.213 60.7113 125.896 60.6981 125.473 60.685C125.051 60.6588 124.621 60.6456 124.185 60.6456C123.749 60.6456 123.299 60.6588 122.837 60.685C122.388 60.6981 122.051 60.7113 121.826 60.7244V60.311C122.368 60.311 122.751 60.2125 122.976 60.0157C123.214 59.8188 123.332 59.4447 123.332 58.8935V52.4362C123.332 51.885 123.214 51.511 122.976 51.3141C122.751 51.1172 122.368 51.0188 121.826 51.0188V50.6054C122.051 50.6185 122.388 50.6382 122.837 50.6644C123.299 50.6776 123.749 50.6841 124.185 50.6841C124.621 50.6841 125.051 50.6776 125.473 50.6644C125.896 50.6382 126.213 50.6185 126.425 50.6054Z" fill="#E7D5A1"/>
<path d="M137.737 50.3101C138.582 50.3101 139.342 50.4938 140.016 50.8613C140.69 51.2288 141.226 51.8063 141.622 52.5937C142.032 53.3812 142.237 54.4049 142.237 55.6649C142.237 56.9248 142.032 57.9485 141.622 58.736C141.226 59.5104 140.69 60.0813 140.016 60.4488C139.342 60.8163 138.582 61 137.737 61C136.904 61 136.144 60.8163 135.457 60.4488C134.783 60.0813 134.241 59.5104 133.831 58.736C133.435 57.9485 133.237 56.9248 133.237 55.6649C133.237 54.4049 133.435 53.3812 133.831 52.5937C134.241 51.8063 134.783 51.2288 135.457 50.8613C136.144 50.4938 136.904 50.3101 137.737 50.3101ZM137.737 50.7038C136.983 50.7038 136.362 51.091 135.873 51.8653C135.397 52.6397 135.16 53.9062 135.16 55.6649C135.16 57.4236 135.397 58.6901 135.873 59.4644C136.362 60.2257 136.983 60.6063 137.737 60.6063C138.49 60.6063 139.104 60.2257 139.58 59.4644C140.069 58.6901 140.314 57.4236 140.314 55.6649C140.314 53.9062 140.069 52.6397 139.58 51.8653C139.104 51.091 138.49 50.7038 137.737 50.7038Z" fill="#E7D5A1"/>
<path d="M155 50.6054V51.0188C154.458 51.0188 154.068 51.1172 153.83 51.3141C153.606 51.511 153.493 51.885 153.493 52.4362V58.8935C153.493 59.4447 153.606 59.8188 153.83 60.0157C154.068 60.2125 154.458 60.311 155 60.311V60.7244C154.775 60.7113 154.432 60.6981 153.969 60.685C153.507 60.6588 153.057 60.6456 152.621 60.6456C152.185 60.6456 151.756 60.6588 151.333 60.685C150.923 60.6981 150.612 60.7113 150.401 60.7244V60.311C150.877 60.311 151.214 60.2125 151.412 60.0157C151.61 59.8188 151.709 59.4447 151.709 58.8935V52.4362C151.709 51.885 151.61 51.511 151.412 51.3141C151.214 51.1172 150.877 51.0188 150.401 51.0188V50.6054C150.612 50.6185 150.923 50.6382 151.333 50.6644C151.756 50.6776 152.185 50.6841 152.621 50.6841C153.057 50.6841 153.507 50.6776 153.969 50.6644C154.432 50.6382 154.775 50.6185 155 50.6054ZM148.339 50.6054V51.0188C147.864 51.0188 147.527 51.1172 147.328 51.3141C147.13 51.511 147.031 51.885 147.031 52.4362V58.8935C147.031 59.4447 147.13 59.8188 147.328 60.0157C147.527 60.2125 147.864 60.311 148.339 60.311V60.7244C148.128 60.7113 147.811 60.6981 147.388 60.685C146.978 60.6588 146.555 60.6456 146.119 60.6456C145.683 60.6456 145.234 60.6588 144.771 60.685C144.308 60.6981 143.965 60.7113 143.74 60.7244V60.311C144.282 60.311 144.665 60.2125 144.89 60.0157C145.128 59.8188 145.247 59.4447 145.247 58.8935V52.4362C145.247 51.885 145.128 51.511 144.89 51.3141C144.665 51.1172 144.282 51.0188 143.74 51.0188V50.6054C143.965 50.6185 144.308 50.6382 144.771 50.6644C145.234 50.6776 145.683 50.6841 146.119 50.6841C146.555 50.6841 146.978 50.6776 147.388 50.6644C147.811 50.6382 148.128 50.6185 148.339 50.6054ZM151.908 51.9835L152.225 52.2L146.773 59.681L146.456 59.4447L151.908 51.9835ZM151.927 45.0931C152.231 45.0931 152.482 45.1915 152.681 45.3884C152.879 45.5852 152.978 45.8346 152.978 46.1365C152.978 46.4121 152.892 46.6746 152.72 46.9239C152.548 47.1602 152.324 47.3702 152.046 47.5539C151.769 47.7377 151.412 47.9017 150.976 48.0461C150.54 48.1905 149.991 48.2626 149.33 48.2626C148.683 48.2626 148.134 48.1905 147.685 48.0461C147.249 47.9017 146.892 47.7377 146.615 47.5539C146.337 47.3702 146.112 47.1602 145.941 46.9239C145.769 46.6746 145.683 46.4121 145.683 46.1365C145.683 45.8346 145.782 45.5852 145.98 45.3884C146.179 45.1915 146.43 45.0931 146.734 45.0931C147.038 45.0931 147.295 45.1849 147.507 45.3687C147.718 45.5524 147.824 45.8149 147.824 46.1562C147.824 46.4318 147.745 46.6549 147.586 46.8255C147.441 46.9961 147.242 47.1077 146.991 47.1602C147.256 47.4489 147.619 47.6392 148.082 47.7311C148.557 47.823 148.974 47.8689 149.33 47.8689C149.687 47.8689 150.097 47.823 150.56 47.7311C151.035 47.6392 151.405 47.4489 151.67 47.1602C151.419 47.1077 151.214 46.9961 151.055 46.8255C150.91 46.6549 150.837 46.4318 150.837 46.1562C150.837 45.8149 150.943 45.5524 151.154 45.3687C151.379 45.1849 151.637 45.0931 151.927 45.0931Z" fill="#E7D5A1"/>
</svg>
