<svg width="215" height="180" viewBox="0 0 215 180" fill="none" xmlns="http://www.w3.org/2000/svg">
<path d="M143.003 176.122L140.003 176.155C140.012 176.95 140.336 177.71 140.905 178.266C141.474 178.823 142.24 179.131 143.036 179.122L143.003 176.122ZM142.902 166.896L145.902 166.863C145.885 165.376 144.783 164.126 143.31 163.924L142.902 166.896ZM160.067 175.935L160.1 178.935C161.757 178.917 163.085 177.559 163.067 175.903L160.067 175.935ZM159.964 166.506L159.42 163.556C157.985 163.821 156.948 165.08 156.964 166.539L159.964 166.506ZM180.136 158.225L182.257 156.103C181.239 155.086 179.642 154.934 178.451 155.742L180.136 158.225ZM187.391 165.48L185.27 167.601C186.441 168.773 188.341 168.773 189.512 167.601L187.391 165.48ZM199.458 153.413L201.579 155.534C202.142 154.971 202.458 154.208 202.458 153.413C202.458 152.617 202.142 151.854 201.579 151.291L199.458 153.413ZM192.555 146.509L190.175 144.683C189.258 145.877 189.369 147.566 190.433 148.631L192.555 146.509ZM203.035 121.561L203.002 118.561C201.519 118.577 200.271 119.674 200.064 121.143L203.035 121.561ZM212 121.463L212.033 124.463C212.828 124.454 213.588 124.13 214.144 123.561C214.701 122.992 215.009 122.226 215 121.43L212 121.463ZM211.813 104.399L214.813 104.366C214.805 103.57 214.48 102.811 213.911 102.254C213.343 101.698 212.576 101.39 211.781 101.399L211.813 104.399ZM202.7 104.498L199.748 105.033C200.009 106.472 201.27 107.514 202.733 107.498L202.7 104.498ZM194.04 83.6503L191.919 81.5289C190.892 82.5559 190.748 84.171 191.577 85.3633L194.04 83.6503ZM201.48 76.2105L203.601 78.3318C204.164 77.7692 204.48 77.0062 204.48 76.2105C204.48 75.4149 204.164 74.6518 203.601 74.0892L201.48 76.2105ZM189.413 64.1435L191.534 62.0222C190.362 60.8506 188.463 60.8506 187.291 62.0222L189.413 64.1435ZM182.187 71.3693L180.387 73.7697C181.582 74.6651 183.253 74.5462 184.308 73.4907L182.187 71.3693ZM157.867 61.2779L154.867 61.3107C154.883 62.7904 155.976 64.0374 157.441 64.2475L157.867 61.2779ZM157.771 52.514L160.77 52.4812C160.762 51.6856 160.437 50.9261 159.869 50.3697C159.3 49.8132 158.533 49.5055 157.738 49.5142L157.771 52.514ZM140.706 52.7007L140.674 49.7009C139.017 49.719 137.688 51.0767 137.707 52.7335L140.706 52.7007ZM140.803 61.5664L141.33 64.5199C142.773 64.2625 143.819 62.9997 143.803 61.5336L140.803 61.5664ZM120.125 70.0369L118.004 72.1582C119.025 73.1795 120.629 73.3281 121.821 72.5119L120.125 70.0369ZM112.21 62.1218L114.332 60.0005C113.16 58.8289 111.26 58.8289 110.089 60.0005L112.21 62.1218ZM100.143 74.1888L98.0219 72.0675C97.4593 72.6301 97.1432 73.3931 97.1432 74.1888C97.1432 74.9844 97.4593 75.7475 98.0219 76.3101L100.143 74.1888ZM107.759 81.8048L110.147 83.6212C111.056 82.4268 110.942 80.7447 109.881 79.6835L107.759 81.8048ZM97.5831 105.492L97.6159 108.492C99.0755 108.476 100.312 107.412 100.545 105.971L97.5831 105.492ZM88.3266 105.594L88.2938 102.594C87.4982 102.602 86.7387 102.927 86.1822 103.496C85.6258 104.064 85.3181 104.831 85.3268 105.626L88.3266 105.594ZM88.5133 122.658L85.5134 122.691C85.5221 123.486 85.8465 124.246 86.4153 124.802C86.984 125.359 87.7505 125.666 88.5461 125.658L88.5133 122.658ZM97.5719 122.559L100.534 122.085C100.299 120.617 99.0253 119.543 97.5391 119.559L97.5719 122.559ZM105.855 143.658L107.976 145.779C108.989 144.767 109.145 143.181 108.349 141.991L105.855 143.658ZM98.1216 151.391L96.0003 149.27C95.4377 149.833 95.1216 150.596 95.1216 151.391C95.1216 152.187 95.4377 152.95 96.0003 153.513L98.1216 151.391ZM110.189 163.458L108.067 165.58C109.239 166.751 111.138 166.751 112.31 165.58L110.189 163.458ZM117.485 156.162L119.329 153.795C118.134 152.865 116.434 152.97 115.364 154.04L117.485 156.162ZM177.957 113.761L174.957 113.794L174.957 113.794L177.957 113.761ZM122.498 114.368L119.498 114.401L122.498 114.368ZM150.531 141.794L150.564 144.794L150.531 141.794ZM146.003 176.089L145.902 166.863L139.902 166.928L140.003 176.155L146.003 176.089ZM160.034 172.936L142.97 173.122L143.036 179.122L160.1 178.935L160.034 172.936ZM156.964 166.539L157.067 175.968L163.067 175.903L162.964 166.474L156.964 166.539ZM178.451 155.742C172.82 159.564 166.373 162.274 159.42 163.556L160.508 169.457C168.297 168.02 175.518 164.984 181.821 160.707L178.451 155.742ZM189.512 163.358L182.257 156.103L178.015 160.346L185.27 167.601L189.512 163.358ZM197.337 151.291L185.27 163.358L189.512 167.601L201.579 155.534L197.337 151.291ZM190.433 148.631L197.337 155.534L201.579 151.291L194.676 144.388L190.433 148.631ZM200.064 121.143C198.831 129.909 195.334 137.961 190.175 144.683L194.934 148.336C200.706 140.817 204.624 131.8 206.005 121.979L200.064 121.143ZM211.967 118.463L203.002 118.561L203.068 124.561L212.033 124.463L211.967 118.463ZM208.814 104.431L209 121.496L215 121.43L214.813 104.366L208.814 104.431ZM202.733 107.498L211.846 107.398L211.781 101.399L202.667 101.498L202.733 107.498ZM191.577 85.3633C195.602 91.1494 198.442 97.8207 199.748 105.033L205.652 103.964C204.189 95.8845 201.007 88.4125 196.503 81.9372L191.577 85.3633ZM199.358 74.0892L191.919 81.5289L196.161 85.7716L203.601 78.3318L199.358 74.0892ZM187.291 66.2648L199.358 78.3318L203.601 74.0892L191.534 62.0222L187.291 66.2648ZM184.308 73.4907L191.534 66.2648L187.291 62.0222L180.065 69.248L184.308 73.4907ZM157.441 64.2475C165.957 65.4691 173.794 68.8271 180.387 73.7697L183.986 68.969C176.61 63.4393 167.833 59.6769 158.293 58.3083L157.441 64.2475ZM154.771 52.5469L154.867 61.3107L160.866 61.2451L160.77 52.4812L154.771 52.5469ZM140.739 55.7005L157.803 55.5139L157.738 49.5142L140.674 49.7009L140.739 55.7005ZM143.803 61.5336L143.706 52.6679L137.707 52.7335L137.804 61.5992L143.803 61.5336ZM121.821 72.5119C127.574 68.5703 134.188 65.793 141.33 64.5199L140.277 58.613C132.277 60.0391 124.869 63.1508 118.43 67.562L121.821 72.5119ZM110.089 64.2431L118.004 72.1582L122.247 67.9156L114.332 60.0005L110.089 64.2431ZM102.265 76.3101L114.332 64.2431L110.089 60.0005L98.0219 72.0675L102.265 76.3101ZM109.881 79.6835L102.265 72.0675L98.0219 76.3101L105.638 83.9262L109.881 79.6835ZM100.545 105.971C101.886 97.6737 105.259 90.0461 110.147 83.6212L105.372 79.9885C99.9038 87.1762 96.1239 95.7178 94.6215 105.014L100.545 105.971ZM88.3594 108.593L97.6159 108.492L97.5503 102.493L88.2938 102.594L88.3594 108.593ZM91.5131 122.625L91.3265 105.561L85.3268 105.626L85.5134 122.691L91.5131 122.625ZM97.5391 119.559L88.4805 119.658L88.5461 125.658L97.6047 125.559L97.5391 119.559ZM108.349 141.991C104.422 136.114 101.699 129.363 100.534 122.085L94.6096 123.033C95.9143 131.185 98.9651 138.747 103.361 145.325L108.349 141.991ZM100.243 153.513L107.976 145.779L103.734 141.536L96.0003 149.27L100.243 153.513ZM112.31 161.337L100.243 149.27L96.0003 153.513L108.067 165.58L112.31 161.337ZM115.364 154.04L108.067 161.337L112.31 165.58L119.607 158.283L115.364 154.04ZM143.31 163.924C134.359 162.694 126.147 159.105 119.329 153.795L115.642 158.529C123.269 164.469 132.465 168.49 142.494 169.868L143.31 163.924ZM149.957 89.3351C163.615 89.1857 174.808 100.136 174.957 113.794L180.957 113.729C180.771 96.7573 166.863 83.1498 149.891 83.3354L149.957 89.3351ZM125.498 114.335C125.349 100.677 136.299 89.4845 149.957 89.3351L149.891 83.3354C132.92 83.5211 119.313 97.4295 119.498 114.401L125.498 114.335ZM150.498 138.794C136.84 138.944 125.647 127.993 125.498 114.335L119.498 114.401C119.684 131.372 133.592 144.98 150.564 144.794L150.498 138.794ZM174.957 113.794C175.107 127.452 164.156 138.645 150.498 138.794L150.564 144.794C167.535 144.608 181.142 130.7 180.957 113.729L174.957 113.794Z" fill="#E7D5A1"/>
<path d="M46.027 101.15L43.0271 101.183C43.0453 102.84 44.403 104.168 46.0598 104.15L46.027 101.15ZM45.8958 89.154L48.8956 89.1212C48.8796 87.66 47.8132 86.4229 46.3703 86.1918L45.8958 89.154ZM59.4556 101.004L59.4884 104.003C61.1451 103.985 62.4735 102.628 62.4554 100.971L59.4556 101.004ZM59.3237 88.9477L58.7581 86.0015C57.333 86.275 56.308 87.5294 56.3239 88.9805L59.3237 88.9477ZM72.1469 83.9646L74.2682 81.8433C73.2862 80.8613 71.7586 80.6817 70.5756 81.4091L72.1469 83.9646ZM80.9579 92.7756L78.8365 94.8969C79.3991 95.4595 80.1622 95.7756 80.9579 95.7756C81.7535 95.7756 82.5166 95.4595 83.0792 94.8969L80.9579 92.7756ZM90.4539 83.2795L92.5752 85.4009C93.7468 84.2293 93.7468 82.3298 92.5752 81.1582L90.4539 83.2795ZM82.2037 75.0294L79.8514 73.1674C78.9064 74.3613 79.0056 76.0739 80.0824 77.1507L82.2037 75.0294ZM89.8443 58.2513L89.8115 55.2515C88.3787 55.2672 87.157 56.2939 86.8949 57.7025L89.8443 58.2513ZM100.324 58.1367L100.356 61.1365C101.152 61.1278 101.912 60.8034 102.468 60.2347C103.024 59.666 103.332 58.8995 103.323 58.1039L100.324 58.1367ZM100.177 44.7081L103.177 44.6753C103.158 43.0185 101.801 41.6902 100.144 41.7083L100.177 44.7081ZM89.9713 44.8197L87.0119 45.3114C87.2543 46.7709 88.5247 47.8357 90.0041 47.8195L89.9713 44.8197ZM84.3157 30.2549L82.1943 28.1336C81.1929 29.1351 81.0282 30.7005 81.7994 31.8884L84.3157 30.2549ZM92.0448 22.5258L94.1661 24.6471C94.7287 24.0845 95.0448 23.3214 95.0448 22.5258C95.0448 21.7301 94.7287 20.9671 94.1661 20.4045L92.0448 22.5258ZM82.5488 13.0297L84.6701 10.9084C83.4985 9.73685 81.599 9.73685 80.4275 10.9084L82.5488 13.0297ZM75.1502 20.4283L73.3452 22.8246C74.5396 23.7243 76.2142 23.607 77.2715 22.5496L75.1502 20.4283ZM57.7495 13.127L54.7497 13.1598C54.7658 14.6332 55.8495 15.8768 57.3069 16.0942L57.7495 13.127ZM57.6483 3.87799L60.6481 3.84518C60.6394 3.04958 60.315 2.29002 59.7463 1.7336C59.1776 1.17717 58.4111 0.869468 57.6155 0.87817L57.6483 3.87799ZM44.2197 4.02486L44.1869 1.02504C42.5301 1.04316 41.2018 2.40092 41.2199 4.05767L44.2197 4.02486ZM44.3231 13.4767L44.9205 16.4166C46.3306 16.1301 47.3386 14.8827 47.3229 13.4439L44.3231 13.4767ZM29.9923 19.6362L27.8709 21.7575C28.9003 22.7869 30.5201 22.9287 31.7127 22.0938L29.9923 19.6362ZM21.7949 11.4388L23.9162 9.31751C23.3536 8.75491 22.5906 8.43883 21.7949 8.43884C20.9993 8.43884 20.2362 8.75491 19.6736 9.31752L21.7949 11.4388ZM12.2989 20.9349L10.1776 18.8135C9.00599 19.9851 9.00599 21.8846 10.1776 23.0562L12.2989 20.9349ZM20.4958 29.1318L22.9532 30.8526C23.7883 29.66 23.6466 28.0399 22.6171 27.0105L20.4958 29.1318ZM13.9697 45.5285L14.0025 48.5283C15.4783 48.5122 16.7231 47.4251 16.9378 45.9649L13.9697 45.5285ZM2.99994 45.6485L2.96713 42.6486C1.31038 42.6668 -0.0180012 44.0245 0.000118369 45.6813L2.99994 45.6485ZM3.1468 59.0771L0.146984 59.1099C0.155686 59.9055 0.480082 60.665 1.04881 61.2215C1.61754 61.7779 2.38401 62.0856 3.17961 62.0769L3.1468 59.0771ZM14.3473 58.9546L17.286 58.351C16.9969 56.9438 15.751 55.939 14.3145 55.9548L14.3473 58.9546ZM19.9634 72.4333L22.0847 74.5546C23.0947 73.5446 23.2526 71.9627 22.4621 70.773L19.9634 72.4333ZM10.7081 81.6886L8.58675 79.5673C7.41518 80.7389 7.41518 82.6384 8.58675 83.8099L10.7081 81.6886ZM20.2041 91.1847L18.0828 93.306C19.2543 94.4775 21.1538 94.4775 22.3254 93.306L20.2041 91.1847ZM29.2296 82.1592L31.0092 79.744C29.8151 78.8641 28.1571 78.989 27.1082 80.0379L29.2296 82.1592ZM51.7925 29.7713L51.7597 26.7715L51.7597 26.7715L51.7925 29.7713ZM73.4272 50.938L70.4274 50.9708L70.4274 50.9708L73.4272 50.938ZM30.6258 51.4061L33.6256 51.3733L33.6256 51.3733L30.6258 51.4061ZM52.2606 72.5728L52.2278 69.5729L52.2606 72.5728ZM49.0268 101.118L48.8956 89.1212L42.8959 89.1868L43.0271 101.183L49.0268 101.118ZM59.4228 98.0037L45.9942 98.1506L46.0598 104.15L59.4884 104.003L59.4228 98.0037ZM56.3239 88.9805L56.4558 101.036L62.4554 100.971L62.3235 88.9148L56.3239 88.9805ZM70.5756 81.4091C67.0066 83.6035 63.0195 85.1834 58.7581 86.0015L59.8893 91.8939C64.8775 90.9362 69.5444 89.0866 73.7183 86.5202L70.5756 81.4091ZM83.0792 90.6543L74.2682 81.8433L70.0256 86.0859L78.8365 94.8969L83.0792 90.6543ZM88.3326 81.1582L78.8365 90.6543L83.0792 94.8969L92.5752 85.4009L88.3326 81.1582ZM80.0824 77.1507L88.3326 85.4009L92.5752 81.1582L84.325 72.908L80.0824 77.1507ZM86.8949 57.7025C85.8233 63.4616 83.3566 68.7392 79.8514 73.1674L84.556 76.8913C88.6508 71.7182 91.5388 65.5438 92.7937 58.8002L86.8949 57.7025ZM100.291 55.1369L89.8115 55.2515L89.8771 61.2512L100.356 61.1365L100.291 55.1369ZM97.1769 44.7409L97.3238 58.1695L103.323 58.1039L103.177 44.6753L97.1769 44.7409ZM90.0041 47.8195L100.21 47.7079L100.144 41.7083L89.9385 41.8199L90.0041 47.8195ZM81.7994 31.8884C84.3903 35.8796 86.1999 40.4245 87.0119 45.3114L92.9307 44.328C91.9804 38.6082 89.8616 33.2886 86.832 28.6215L81.7994 31.8884ZM89.9235 20.4045L82.1943 28.1336L86.437 32.3762L94.1661 24.6471L89.9235 20.4045ZM80.4275 15.1511L89.9235 24.6471L94.1661 20.4045L84.6701 10.9084L80.4275 15.1511ZM77.2715 22.5496L84.6701 15.1511L80.4275 10.9084L73.0289 18.307L77.2715 22.5496ZM57.3069 16.0942C63.2592 16.9821 68.7356 19.3523 73.3452 22.8246L76.9552 18.0321C71.5689 13.9748 65.1607 11.1994 58.1921 10.1599L57.3069 16.0942ZM54.6485 3.9108L54.7497 13.1598L60.7493 13.0942L60.6481 3.84518L54.6485 3.9108ZM44.2525 7.02468L57.6811 6.87781L57.6155 0.87817L44.1869 1.02504L44.2525 7.02468ZM47.3229 13.4439L47.2195 3.99206L41.2199 4.05767L41.3233 13.5095L47.3229 13.4439ZM31.7127 22.0938C35.6127 19.3637 40.0864 17.3989 44.9205 16.4166L43.7257 10.5368C38.066 11.6869 32.8306 13.9872 28.2718 17.1785L31.7127 22.0938ZM19.6736 13.5602L27.8709 21.7575L32.1136 17.5149L23.9162 9.31751L19.6736 13.5602ZM14.4202 23.0562L23.9162 13.5602L19.6736 9.31752L10.1776 18.8135L14.4202 23.0562ZM22.6171 27.0105L14.4202 18.8135L10.1776 23.0562L18.3745 31.2531L22.6171 27.0105ZM16.9378 45.9649C17.7548 40.4088 19.8628 35.2657 22.9532 30.8526L18.0384 27.411C14.4264 32.5691 11.958 38.5878 11.0016 45.0921L16.9378 45.9649ZM3.03275 48.6483L14.0025 48.5283L13.9369 42.5287L2.96713 42.6486L3.03275 48.6483ZM6.14663 59.0443L5.99976 45.6156L0.000118369 45.6813L0.146984 59.1099L6.14663 59.0443ZM14.3145 55.9548L3.114 56.0773L3.17961 62.0769L14.3801 61.9544L14.3145 55.9548ZM22.4621 70.773C19.9978 67.0642 18.2133 62.8655 17.286 58.351L11.4087 59.5582C12.4943 64.8435 14.5835 69.7574 17.4647 74.0936L22.4621 70.773ZM12.8294 83.8099L22.0847 74.5546L17.8421 70.312L8.58675 79.5673L12.8294 83.8099ZM22.3254 89.0633L12.8294 79.5673L8.58675 83.8099L18.0828 93.306L22.3254 89.0633ZM27.1082 80.0379L18.0828 89.0633L22.3254 93.306L31.3509 84.2805L27.1082 80.0379ZM46.3703 86.1918C40.6922 85.2822 35.4575 83.0218 31.0092 79.744L27.4499 84.5743C32.648 88.4046 38.7734 91.0513 45.4212 92.1162L46.3703 86.1918ZM51.8253 32.7712C61.9878 32.66 70.3163 40.8083 70.4274 50.9708L76.4271 50.9052C76.2797 37.4291 65.2357 26.6241 51.7597 26.7715L51.8253 32.7712ZM33.6256 51.3733C33.5145 41.2108 41.6627 32.8823 51.8253 32.7712L51.7597 26.7715C38.2836 26.9189 27.4786 37.9629 27.626 51.4389L33.6256 51.3733ZM52.2278 69.5729C42.0652 69.6841 33.7368 61.5358 33.6256 51.3733L27.626 51.4389C27.7734 64.915 38.8174 75.72 52.2934 75.5726L52.2278 69.5729ZM70.4274 50.9708C70.5386 61.1333 62.3903 69.4618 52.2278 69.5729L52.2934 75.5726C65.7694 75.4252 76.5744 64.3812 76.4271 50.9052L70.4274 50.9708Z" fill="#E7D5A1"/>
</svg>
