<svg width="13" height="19" viewBox="0 0 13 19" fill="none" xmlns="http://www.w3.org/2000/svg">
<path fill-rule="evenodd" clip-rule="evenodd" d="M7.95125 17.0898C10.7395 13.5443 13 10.6699 13 7.42263C13 3.65688 10.1267 0.604126 6.5824 0.604126C3.03805 0.604126 0.164795 3.65688 0.164795 7.42263C0.164795 10.9875 2.58633 13.9516 5.99669 18.126V18.126C6.29595 18.4924 6.8589 18.4845 7.14988 18.1115C7.42073 17.7644 7.68833 17.4241 7.95125 17.0898ZM6.58243 10.7372C8.44787 10.7372 9.96011 9.22491 9.96011 7.35947C9.96011 5.49403 8.44787 3.98178 6.58243 3.98178C4.71698 3.98178 3.20474 5.49403 3.20474 7.35947C3.20474 9.22491 4.71698 10.7372 6.58243 10.7372Z" fill="#E7D5A1"/>
</svg>
