<svg width="24" height="16" viewBox="0 0 24 16" fill="none" xmlns="http://www.w3.org/2000/svg">
<rect x="0.78679" y="0.93889" width="21.8287" height="14.1834" rx="1.57358" stroke="#E7D5A1" stroke-width="1.57358"/>
<path fill-rule="evenodd" clip-rule="evenodd" d="M1.21725 1.53981C1.28903 1.65179 1.37039 1.75872 1.46132 1.85927L10.1276 11.4418C11.002 12.4087 12.4314 12.4194 13.3202 11.4658L22.021 2.13091C22.2964 1.83547 22.4875 1.48213 22.5943 1.10637C22.344 0.909982 22.0518 0.743573 21.7507 0.606052L21.1641 0.59404C21.1304 0.729807 21.0642 0.857965 20.9655 0.963822L12.2647 10.2987C11.9684 10.6166 11.492 10.613 11.2005 10.2907L2.53423 0.708171C2.47308 0.640557 2.42493 0.564286 2.38975 0.483032L1.21725 1.53981Z" fill="#E7D5A1"/>
</svg>
