<svg width="160" height="183" viewBox="0 0 160 183" fill="none" xmlns="http://www.w3.org/2000/svg">
<mask id="path-1-outside-1_23_562" maskUnits="userSpaceOnUse" x="3.68024" y="0.378048" width="64" height="58" fill="black">
<rect fill="white" x="3.68024" y="0.378048" width="64" height="58"/>
<path fill-rule="evenodd" clip-rule="evenodd" d="M15.892 46.3793C25.4487 32.8782 39.8174 23.0244 56.5003 19.3158C56.4132 19.1533 56.324 18.9914 56.2325 18.8302C49.8982 7.67068 35.2137 4.04462 23.4336 10.7311C11.6535 17.4176 7.23872 31.8846 13.5729 43.0441C14.2541 44.2441 15.0317 45.3569 15.892 46.3793Z"/>
</mask>
<path d="M15.892 46.3793L10.6791 50.7657L16.3573 57.5138L21.4527 50.3154L15.892 46.3793ZM56.5003 19.3158L57.9787 25.9663L66.7451 24.0176L62.5065 16.1003L56.5003 19.3158ZM56.2325 18.8302L50.3075 22.1932L50.3075 22.1932L56.2325 18.8302ZM23.4336 10.7311L26.7966 16.656L23.4336 10.7311ZM13.5729 43.0441L19.4979 39.681L19.4979 39.681L13.5729 43.0441ZM21.4527 50.3154C30.0584 38.1579 42.9894 29.2985 57.9787 25.9663L55.0218 12.6653C36.6455 16.7504 20.839 27.5985 10.3312 42.4431L21.4527 50.3154ZM62.5065 16.1003C62.393 15.8882 62.2766 15.6771 62.1574 15.4671L50.3075 22.1932C50.3713 22.3056 50.4335 22.4183 50.494 22.5314L62.5065 16.1003ZM62.1574 15.4671C53.7966 0.737321 34.8167 -3.56385 20.0705 4.80617L26.7966 16.656C35.6107 11.6531 45.9999 14.604 50.3075 22.1932L62.1574 15.4671ZM20.0705 4.80617C5.32443 13.1762 -0.712762 31.6773 7.64799 46.4071L19.4979 39.681C15.1902 32.0919 17.9825 21.659 26.7966 16.656L20.0705 4.80617ZM7.64799 46.4071C8.53594 47.9715 9.55236 49.4267 10.6791 50.7657L21.1048 41.9928C20.5111 41.2872 19.9722 40.5166 19.4979 39.681L7.64799 46.4071Z" fill="#E7D5A1" mask="url(#path-1-outside-1_23_562)"/>
<mask id="path-3-outside-2_23_562" maskUnits="userSpaceOnUse" x="94.1883" y="1.37805" width="64" height="58" fill="black">
<rect fill="white" x="94.1883" y="1.37805" width="64" height="58"/>
<path fill-rule="evenodd" clip-rule="evenodd" d="M145.977 47.3792C136.42 33.8782 122.051 24.0244 105.368 20.3158C105.455 20.1533 105.545 19.9914 105.636 19.8302C111.97 8.67068 126.655 5.04462 138.435 11.7311C150.215 18.4176 154.63 32.8846 148.296 44.0441C147.614 45.2441 146.837 46.3569 145.977 47.3792Z"/>
</mask>
<path d="M145.977 47.3792L151.189 51.7657L145.511 58.5138L140.416 51.3154L145.977 47.3792ZM105.368 20.3158L103.89 26.9663L95.1234 25.0175L99.362 17.1003L105.368 20.3158ZM105.636 19.8302L111.561 23.1932L111.561 23.1932L105.636 19.8302ZM138.435 11.7311L141.798 5.80617L141.798 5.80617L138.435 11.7311ZM148.296 44.0441L154.221 47.4071L154.221 47.4071L148.296 44.0441ZM140.416 51.3154C131.81 39.1579 118.879 30.2984 103.89 26.9663L106.847 13.6653C125.223 17.7504 141.03 28.5985 151.537 43.4431L140.416 51.3154ZM99.362 17.1003C99.4755 16.8883 99.5919 16.6772 99.7111 16.4671L111.561 23.1932C111.497 23.3055 111.435 23.4183 111.375 23.5314L99.362 17.1003ZM99.7111 16.4671C108.072 1.73732 127.052 -2.56385 141.798 5.80617L135.072 17.656C126.258 12.6531 115.869 15.604 111.561 23.1932L99.7111 16.4671ZM141.798 5.80617C156.544 14.1762 162.581 32.6773 154.221 47.4071L142.371 40.681C146.678 33.0919 143.886 22.659 135.072 17.656L141.798 5.80617ZM154.221 47.4071C153.333 48.9715 152.316 50.4267 151.189 51.7657L140.764 42.9928C141.357 42.2872 141.896 41.5166 142.371 40.681L154.221 47.4071Z" fill="#E7D5A1" mask="url(#path-3-outside-2_23_562)"/>
<circle cx="80" cy="94.6015" r="75.102" stroke="#E7D5A1" stroke-width="7.94393"/>
<path d="M80 51.9017V93.0201L101.35 126.231" stroke="#E7D5A1" stroke-width="7.94393" stroke-linecap="round"/>
<path d="M32.3045 178.378L42.6316 160.901" stroke="#E7D5A1" stroke-width="7.94393" stroke-linecap="round" stroke-linejoin="round"/>
<path d="M132.001 178.378L121.674 160.901" stroke="#E7D5A1" stroke-width="7.94393" stroke-linecap="round" stroke-linejoin="round"/>
</svg>
