<svg width="711" height="280" viewBox="0 0 711 280" fill="none" xmlns="http://www.w3.org/2000/svg">
<path d="M9.76834 0C13.8254 0.196307 19.1382 0.392614 25.7068 0.588921C32.2754 0.785228 38.7473 0.883381 45.1227 0.883381C54.2028 0.883381 62.8965 0.785228 71.2038 0.588921C79.5111 0.392614 85.4036 0.29446 88.881 0.29446C112.257 0.29446 129.741 5.69297 141.333 16.49C152.925 27.287 158.72 41.225 158.72 58.3039C158.72 65.3711 157.561 72.8308 155.243 80.6832C152.925 88.3393 148.868 95.5046 143.072 102.179C137.469 108.657 129.741 113.958 119.889 118.08C110.036 122.203 97.5747 124.264 82.5056 124.264H54.6858V118.375H79.6077C93.3245 118.375 103.757 115.724 110.905 110.424C118.246 105.124 123.173 98.1547 125.684 89.5171C128.389 80.8795 129.741 71.5548 129.741 61.543C129.741 42.8936 126.071 28.9556 118.729 19.7291C111.581 10.5026 99.2169 5.88928 81.6363 5.88928C72.7494 5.88928 66.9536 7.55791 64.2489 10.8952C61.5442 14.2324 60.1918 21.0051 60.1918 31.2132V177.267C60.1918 184.335 60.868 189.635 62.2203 193.169C63.7659 196.702 66.6638 199.058 70.914 200.236C75.1643 201.414 81.3465 202.199 89.4606 202.591V208.481C84.4376 208.088 78.0622 207.892 70.3345 207.892C62.6067 207.695 54.7824 207.597 46.8615 207.597C39.3269 207.597 32.2754 207.695 25.7068 207.892C19.1382 207.892 13.8254 208.088 9.76834 208.481V202.591C16.3369 202.199 21.2633 201.414 24.5476 200.236C28.0251 199.058 30.3434 196.702 31.5026 193.169C32.6618 189.635 33.2413 184.335 33.2413 177.267V31.2132C33.2413 23.9497 32.6618 18.6494 31.5026 15.3121C30.3434 11.7786 28.0251 9.42285 24.5476 8.245C21.2633 6.87083 16.3369 6.08559 9.76834 5.88928V0Z" fill="#E7D5A1"/>
<path d="M214.928 17.4706C225.129 17.4706 233.127 20.5919 238.923 26.8345C244.719 33.0772 247.617 42.9712 247.617 56.5165H187.63L187.282 53.1596H229.186C229.302 47.3881 228.838 42.0878 227.795 37.2586C226.752 32.3116 225.129 28.3658 222.927 25.4211C220.724 22.4765 217.826 21.0041 214.233 21.0041C209.248 21.0041 204.902 23.7132 201.192 29.1314C197.599 34.4317 195.397 42.9712 194.585 54.7498L195.107 55.6331C194.991 57.2821 194.875 59.1078 194.759 61.1102C194.643 62.9948 194.585 64.8793 194.585 66.7639C194.585 74.8911 195.802 81.7227 198.236 87.2586C200.671 92.7945 203.858 96.9759 207.8 99.8028C211.741 102.512 215.74 103.866 219.797 103.866C222.927 103.866 225.94 103.395 228.838 102.453C231.852 101.393 234.692 99.685 237.358 97.3293C240.024 94.8558 242.4 91.4989 244.487 87.2586L247.964 88.672C246.573 92.6768 244.429 96.6226 241.531 100.509C238.633 104.396 234.924 107.577 230.403 110.05C225.882 112.406 220.608 113.584 214.581 113.584C206.467 113.584 199.396 111.758 193.368 108.107C187.34 104.338 182.704 98.9783 179.458 92.0289C176.212 85.0796 174.59 76.8346 174.59 67.2939C174.59 56.811 176.27 47.8593 179.632 40.4388C182.994 33.0183 187.688 27.3646 193.716 23.4777C199.859 19.4729 206.93 17.4706 214.928 17.4706Z" fill="#E7D5A1"/>
<path d="M380.61 19.9441V23.6543C377.017 23.6543 374.293 24.0666 372.438 24.8911C370.583 25.5978 369.308 27.0112 368.613 29.1314C368.033 31.1337 367.743 34.1961 367.743 38.3186V92.9123C367.743 96.917 368.033 99.9795 368.613 102.1C369.308 104.102 370.583 105.457 372.438 106.163C374.293 106.87 377.017 107.341 380.61 107.577V111.11C378.06 110.875 374.814 110.757 370.873 110.757C366.932 110.639 362.875 110.58 358.702 110.58C354.181 110.58 349.834 110.639 345.661 110.757C341.488 110.757 338.185 110.875 335.75 111.11V107.577C339.344 107.341 342.068 106.87 343.923 106.163C345.893 105.457 347.226 104.102 347.922 102.1C348.617 99.9795 348.965 96.917 348.965 92.9123V30.1914L316.277 111.994H313.495L281.849 31.2515V90.2621C281.849 94.6202 282.197 98.036 282.893 100.509C283.704 102.983 285.153 104.75 287.24 105.81C289.326 106.752 292.456 107.341 296.629 107.577V111.11C294.426 110.875 291.876 110.757 288.978 110.757C286.196 110.639 283.24 110.58 280.111 110.58C277.329 110.58 274.489 110.639 271.591 110.757C268.809 110.757 266.491 110.875 264.636 111.11V107.577C268.345 107.341 271.185 106.693 273.156 105.633C275.126 104.573 276.401 102.806 276.981 100.333C277.677 97.7415 278.024 94.2669 278.024 89.9088V38.672C278.024 34.3139 277.677 31.1337 276.981 29.1314C276.401 27.0112 275.126 25.5978 273.156 24.8911C271.185 24.0666 268.345 23.5954 264.636 23.4777V19.9441C266.491 20.0619 268.809 20.1796 271.591 20.2974C274.489 20.4152 277.329 20.4741 280.111 20.4741C286.486 20.4741 292.05 20.2974 296.803 19.9441L323.405 90.4388L319.928 93.9724L348.965 20.4741C350.472 20.4741 352.095 20.533 353.833 20.6508C355.572 20.6508 357.311 20.6508 359.05 20.6508C363.223 20.6508 367.164 20.5919 370.873 20.4741C374.698 20.2385 377.944 20.0619 380.61 19.9441Z" fill="#E7D5A1"/>
<path d="M438.806 17.4706C446.573 17.4706 453.47 19.1196 459.497 22.4176C465.525 25.7156 470.335 30.8981 473.929 37.9653C477.522 45.0324 479.319 54.2786 479.319 65.7038C479.319 77.129 477.522 86.3752 473.929 93.4424C470.335 100.392 465.525 105.515 459.497 108.813C453.47 111.994 446.573 113.584 438.806 113.584C431.156 113.584 424.259 111.994 418.115 108.813C411.972 105.515 407.103 100.392 403.51 93.4424C400.032 86.3752 398.294 77.129 398.294 65.7038C398.294 54.2786 400.032 45.0324 403.51 37.9653C407.103 30.8981 411.972 25.7156 418.115 22.4176C424.259 19.1196 431.156 17.4706 438.806 17.4706ZM438.806 21.0041C432.779 21.0041 427.852 24.5377 424.027 31.6049C420.202 38.5542 418.289 49.9205 418.289 65.7038C418.289 81.4871 420.202 92.8534 424.027 99.8028C427.852 106.634 432.779 110.05 438.806 110.05C444.718 110.05 449.586 106.634 453.412 99.8028C457.353 92.8534 459.323 81.4871 459.323 65.7038C459.323 49.9205 457.353 38.5542 453.412 31.6049C449.586 24.5377 444.718 21.0041 438.806 21.0041Z" fill="#E7D5A1"/>
<path d="M595.069 20.1208V23.831C590.548 23.831 587.302 24.7144 585.332 26.4812C583.477 28.248 582.55 31.6049 582.55 36.5519V94.6791C582.55 99.6261 583.477 102.983 585.332 104.75C587.302 106.517 590.548 107.4 595.069 107.4V111.11C593.098 110.992 590.026 110.875 585.853 110.757C581.68 110.521 577.565 110.404 573.508 110.404C569.567 110.404 565.626 110.521 561.685 110.757C557.86 110.875 554.962 110.992 552.991 111.11V107.4C556.932 107.4 559.714 106.517 561.337 104.75C562.96 102.983 563.771 99.6261 563.771 94.6791V36.5519C563.771 31.6049 562.96 28.248 561.337 26.4812C559.714 24.7144 556.932 23.831 552.991 23.831V20.1208C554.962 20.2385 557.802 20.4152 561.511 20.6508C565.336 20.7686 569.219 20.8275 573.161 20.8275C577.218 20.8275 581.333 20.7686 585.506 20.6508C589.794 20.4152 592.982 20.2385 595.069 20.1208ZM538.907 20.1208V23.831C535.082 23.831 532.3 24.7144 530.561 26.4812C528.939 28.248 528.127 31.6049 528.127 36.5519V94.6791C528.127 99.6261 528.939 102.983 530.561 104.75C532.3 106.517 535.082 107.4 538.907 107.4V111.11C537.053 110.992 534.213 110.875 530.387 110.757C526.678 110.521 522.795 110.404 518.738 110.404C514.797 110.404 510.682 110.521 506.393 110.757C502.104 110.875 498.916 110.992 496.83 111.11V107.4C501.351 107.4 504.538 106.517 506.393 104.75C508.363 102.983 509.349 99.6261 509.349 94.6791V36.5519C509.349 31.6049 508.363 28.248 506.393 26.4812C504.538 24.7144 501.351 23.831 496.83 23.831V20.1208C498.916 20.2385 502.046 20.4152 506.219 20.6508C510.392 20.7686 514.449 20.8275 518.39 20.8275C522.447 20.8275 526.388 20.7686 530.214 20.6508C534.155 20.4152 537.053 20.2385 538.907 20.1208ZM570.031 62.5236V66.0572H520.998V62.5236H570.031Z" fill="#E7D5A1"/>
<path d="M698.022 20.1208C697.559 24.5966 697.211 28.8369 696.979 32.8416C696.863 36.8463 696.805 39.9088 696.805 42.0289C696.805 44.2668 696.863 46.387 696.979 48.3893C697.095 50.3917 697.211 52.0407 697.327 53.3363H693.328C692.401 45.0913 690.894 38.8487 688.807 34.6084C686.837 30.3681 684.286 27.4824 681.157 25.9512C678.027 24.4199 674.318 23.6543 670.029 23.6543H663.595V92.9123C663.595 98.6838 665.16 102.571 668.29 104.573C671.536 106.458 675.882 107.4 681.331 107.4V111.11C678.549 110.992 674.723 110.875 669.855 110.757C664.986 110.521 659.77 110.404 654.206 110.404C648.758 110.404 643.542 110.521 638.558 110.757C633.689 110.875 629.864 110.992 627.082 111.11V107.4C632.646 107.4 636.993 106.517 640.122 104.75C643.252 102.865 644.817 99.0372 644.817 93.2657V23.6543H636.993C632.704 23.6543 629.11 24.4199 626.212 25.9512C623.315 27.4824 620.938 30.427 619.084 34.7851C617.345 39.0254 616.012 45.268 615.085 53.513H611.085C611.317 52.2174 611.433 50.5684 611.433 48.566C611.549 46.5637 611.607 44.4435 611.607 42.2056C611.607 40.0854 611.491 37.023 611.259 33.0183C611.143 28.8958 610.854 24.6555 610.39 20.2974H627.603C631.313 20.2974 635.486 20.3563 640.122 20.4741C644.759 20.5919 649.396 20.6508 654.032 20.6508C658.669 20.6508 663.306 20.5919 667.942 20.4741C672.695 20.2385 676.926 20.1208 680.635 20.1208H698.022Z" fill="#E7D5A1"/>
<path d="M253.602 129.629V133.159C249.081 133.159 245.829 133.999 243.844 135.679C241.97 137.36 241.032 140.553 241.032 145.259V200.381C241.032 205.087 241.97 208.28 243.844 209.961C245.829 211.641 249.081 212.482 253.602 212.482V216.011C251.728 215.899 248.971 215.787 245.333 215.675C241.694 215.451 237.614 215.339 233.094 215.339C228.683 215.339 224.108 215.451 219.366 215.675C214.735 215.787 211.152 215.899 208.616 216.011V212.482C214.129 212.482 218.429 211.585 221.516 209.793C224.604 207.888 226.147 204.191 226.147 198.701V145.259C226.147 140.553 225.32 137.36 223.666 135.679C222.013 133.999 219.201 133.159 215.232 133.159V129.629C216.996 129.741 219.587 129.909 223.005 130.134C226.533 130.246 230.117 130.302 233.755 130.302C237.394 130.302 241.143 130.246 245.002 130.134C248.861 129.909 251.728 129.741 253.602 129.629ZM205.804 129.629V133.159C201.835 133.159 199.023 133.999 197.37 135.679C195.716 137.36 194.889 140.553 194.889 145.259V158.367C194.889 162.288 195.109 165.706 195.55 168.619C196.102 171.532 197.37 173.772 199.354 175.341C201.339 176.909 204.536 177.694 208.947 177.694C212.475 177.694 215.838 177.246 219.036 176.349C222.233 175.341 224.879 174.052 226.974 172.484V176.013C224.769 177.582 221.351 179.15 216.72 180.719C212.199 182.287 207.513 183.072 202.662 183.072C198.803 183.072 195.385 182.511 192.408 181.391C189.541 180.159 187.226 178.59 185.462 176.685C183.367 174.445 181.933 171.532 181.161 167.946C180.39 164.361 180.004 159.936 180.004 154.67V145.259C180.004 140.553 179.011 137.36 177.027 135.679C175.152 133.999 171.955 133.159 167.434 133.159V129.629C169.308 129.741 172.175 129.909 176.034 130.134C179.893 130.246 183.642 130.302 187.281 130.302C190.919 130.302 194.448 130.246 197.866 130.134C201.394 129.909 204.04 129.741 205.804 129.629Z" fill="#E7D5A1"/>
<path d="M286.751 217.187C282.23 217.187 278.316 216.347 275.008 214.666C271.7 212.874 269.165 210.409 267.4 207.272C265.746 204.135 264.92 200.493 264.92 196.348C264.92 191.418 266.022 187.385 268.227 184.248C270.543 181.111 273.465 178.59 276.993 176.685C280.521 174.781 284.215 173.212 288.074 171.98C292.043 170.635 295.792 169.403 299.321 168.283C302.849 167.05 305.716 165.65 307.921 164.081C310.236 162.513 311.394 160.44 311.394 157.863V147.443C311.394 142.738 310.677 139.153 309.244 136.688C307.921 134.223 306.101 132.598 303.786 131.814C301.471 130.918 298.879 130.47 296.013 130.47C293.256 130.47 290.279 130.862 287.082 131.646C283.994 132.43 281.514 134.055 279.639 136.52C281.734 136.968 283.553 138.088 285.097 139.881C286.641 141.674 287.412 143.97 287.412 146.771C287.412 149.572 286.53 151.813 284.766 153.494C283.002 155.062 280.742 155.846 277.985 155.846C274.788 155.846 272.417 154.838 270.874 152.821C269.44 150.693 268.723 148.34 268.723 145.763C268.723 142.85 269.44 140.497 270.874 138.704C272.307 136.912 274.126 135.231 276.331 133.663C278.867 131.87 282.12 130.358 286.089 129.125C290.169 127.781 294.745 127.109 299.817 127.109C304.337 127.109 308.196 127.669 311.394 128.789C314.591 129.797 317.238 131.31 319.333 133.327C322.199 136.016 324.074 139.321 324.956 143.242C325.838 147.051 326.279 151.645 326.279 157.023V203.743C326.279 206.544 326.665 208.56 327.437 209.793C328.319 211.025 329.642 211.641 331.406 211.641C332.619 211.641 333.777 211.361 334.879 210.801C335.982 210.241 337.305 209.344 338.849 208.112L340.668 210.969C338.352 212.762 336.147 214.274 334.052 215.507C331.957 216.627 329.146 217.187 325.617 217.187C322.42 217.187 319.774 216.627 317.679 215.507C315.584 214.386 313.985 212.762 312.882 210.633C311.89 208.392 311.394 205.591 311.394 202.23C308.417 207.272 304.834 211.025 300.644 213.49C296.564 215.955 291.933 217.187 286.751 217.187ZM292.705 210.465C296.344 210.465 299.706 209.401 302.794 207.272C305.991 205.143 308.858 201.95 311.394 197.693V164.753C310.071 166.658 308.141 168.283 305.605 169.627C303.069 170.859 300.313 172.148 297.336 173.492C294.359 174.725 291.492 176.237 288.736 178.03C286.089 179.71 283.884 181.951 282.12 184.752C280.356 187.553 279.474 191.194 279.474 195.676C279.474 200.157 280.632 203.743 282.947 206.432C285.373 209.12 288.625 210.465 292.705 210.465Z" fill="#E7D5A1"/>
<path d="M386.985 127.109C390.513 127.109 393.931 127.557 397.239 128.453C400.547 129.349 403.524 130.694 406.17 132.486C408.706 134.167 410.635 136.128 411.958 138.368C413.282 140.497 413.943 142.85 413.943 145.427C413.943 148.452 413.116 150.805 411.462 152.485C409.808 154.054 407.713 154.838 405.177 154.838C402.752 154.838 400.602 154.11 398.727 152.653C396.963 151.197 396.081 149.124 396.081 146.435C396.081 143.858 396.743 141.786 398.066 140.217C399.499 138.648 401.153 137.64 403.027 137.192C401.925 135.175 399.94 133.495 397.073 132.15C394.317 130.806 391.34 130.134 388.142 130.134C385.386 130.134 382.629 130.806 379.873 132.15C377.116 133.495 374.58 135.735 372.265 138.873C369.95 141.898 368.075 146.099 366.642 151.477C365.208 156.743 364.492 163.353 364.492 171.308C364.492 181.167 365.594 189.01 367.8 194.836C370.005 200.662 372.871 204.863 376.4 207.44C380.038 209.905 384.008 211.137 388.308 211.137C391.175 211.137 394.096 210.577 397.073 209.457C400.05 208.336 402.862 206.544 405.508 204.079C408.155 201.502 410.415 198.085 412.289 193.827L415.432 195.004C414.329 198.589 412.51 202.23 409.974 205.927C407.438 209.513 404.13 212.482 400.05 214.834C395.971 217.187 390.954 218.364 385 218.364C378.164 218.364 371.989 216.571 366.476 212.986C360.963 209.401 356.553 204.303 353.245 197.693C350.048 190.97 348.449 183.016 348.449 173.828C348.449 164.641 350.048 156.575 353.245 149.628C356.553 142.57 361.129 137.08 366.973 133.159C372.816 129.125 379.487 127.109 386.985 127.109Z" fill="#E7D5A1"/>
<path d="M466.591 127.109C473.648 127.109 479.988 128.677 485.611 131.814C491.234 134.951 495.7 139.881 499.008 146.603C502.426 153.325 504.135 162.064 504.135 172.82C504.135 183.576 502.426 192.315 499.008 199.037C495.7 205.647 491.234 210.521 485.611 213.658C479.988 216.795 473.648 218.364 466.591 218.364C459.645 218.364 453.305 216.795 447.571 213.658C441.948 210.521 437.428 205.647 434.01 199.037C430.702 192.315 429.048 183.576 429.048 172.82C429.048 162.064 430.702 153.325 434.01 146.603C437.428 139.881 441.948 134.951 447.571 131.814C453.305 128.677 459.645 127.109 466.591 127.109ZM466.591 130.47C460.306 130.47 455.124 133.775 451.045 140.385C447.075 146.995 445.091 157.807 445.091 172.82C445.091 187.833 447.075 198.645 451.045 205.255C455.124 211.753 460.306 215.002 466.591 215.002C472.876 215.002 478.003 211.753 481.972 205.255C486.052 198.645 488.092 187.833 488.092 172.82C488.092 157.807 486.052 146.995 481.972 140.385C478.003 133.775 472.876 130.47 466.591 130.47Z" fill="#E7D5A1"/>
<path d="M557.862 129.629C566.021 129.629 572.416 130.47 577.047 132.15C581.788 133.831 585.151 136.24 587.136 139.377C589.12 142.402 590.113 145.931 590.113 149.964C590.113 155.79 587.08 160.888 581.016 165.258C575.062 169.627 566.021 171.812 553.892 171.812C553.892 171.812 553.617 171.7 553.065 171.476C552.624 171.252 552.128 171.027 551.577 170.803C551.026 170.579 550.75 170.467 550.75 170.467C557.365 170.355 562.382 169.627 565.8 168.283C569.329 166.826 571.699 164.697 572.912 161.896C574.235 159.095 574.897 155.566 574.897 151.309C574.897 147.836 574.401 144.755 573.408 142.066C572.526 139.265 570.707 137.08 567.95 135.511C565.304 133.943 561.39 133.159 556.208 133.159C551.797 133.159 548.655 134.055 546.781 135.848C545.016 137.528 544.134 140.665 544.134 145.259V200.381C544.134 205.087 545.016 208.28 546.781 209.961C548.655 211.641 551.963 212.482 556.704 212.482C562.878 212.482 567.62 211.529 570.927 209.625C574.345 207.72 576.661 205.199 577.874 202.062C579.197 198.925 579.858 195.508 579.858 191.811C579.858 184.64 577.874 179.766 573.904 177.19C570.045 174.613 565.084 173.324 559.019 173.324H533.88C533.88 173.324 533.88 172.876 533.88 171.98C533.88 170.971 533.88 170.467 533.88 170.467H557.531L559.019 170.803C567.84 170.803 574.897 171.644 580.189 173.324C585.592 174.893 589.451 177.246 591.766 180.383C594.192 183.408 595.405 187.161 595.405 191.642C595.405 196.124 594.192 200.213 591.766 203.911C589.451 207.608 585.592 210.577 580.189 212.818C574.787 214.946 567.509 216.011 558.358 216.011C554.94 216.011 551.411 215.899 547.773 215.675C544.134 215.451 540.275 215.339 536.196 215.339C532.778 215.339 529.139 215.451 525.28 215.675C521.421 215.787 518.554 215.899 516.68 216.011V212.482C521.2 212.482 524.398 211.641 526.272 209.961C528.257 208.28 529.249 205.087 529.249 200.381V145.259C529.249 140.553 528.257 137.36 526.272 135.679C524.398 133.999 521.2 133.159 516.68 133.159V129.629C518.554 129.741 521.421 129.909 525.28 130.134C529.139 130.246 532.778 130.302 536.196 130.302C540.165 130.302 544.024 130.19 547.773 129.966C551.522 129.741 554.885 129.629 557.862 129.629Z" fill="#E7D5A1"/>
<path d="M45.8197 235.546V237.314C43.5549 237.314 41.9254 237.735 40.9311 238.577C39.9921 239.419 39.5226 241.019 39.5226 243.376V270.991C39.5226 273.349 39.9921 274.948 40.9311 275.79C41.9254 276.632 43.5549 277.053 45.8197 277.053V278.821C44.8806 278.765 43.4445 278.709 41.5111 278.653C39.5778 278.541 37.6997 278.485 35.8769 278.485C34.0541 278.485 32.2588 278.541 30.4912 278.653C28.7789 278.709 27.4808 278.765 26.597 278.821V277.053C28.5855 277.053 29.9941 276.632 30.8226 275.79C31.6512 274.948 32.0655 273.349 32.0655 270.991V243.376C32.0655 241.019 31.6512 239.419 30.8226 238.577C29.9941 237.735 28.5855 237.314 26.597 237.314V235.546C27.4808 235.602 28.7789 235.686 30.4912 235.799C32.2588 235.855 34.0541 235.883 35.8769 235.883C37.6997 235.883 39.5778 235.855 41.5111 235.799C43.4445 235.686 44.8806 235.602 45.8197 235.546ZM19.2227 235.546V237.314C17.2342 237.314 15.8256 237.735 14.997 238.577C14.1685 239.419 13.7542 241.019 13.7542 243.376V270.991C13.7542 273.349 14.1685 274.948 14.997 275.79C15.8256 276.632 17.2342 277.053 19.2227 277.053V278.821C18.3389 278.765 17.0132 278.709 15.2456 278.653C13.5332 278.541 11.7656 278.485 9.94279 278.485C8.11994 278.485 6.24186 278.541 4.30854 278.653C2.37522 278.709 0.939041 278.765 0 278.821V277.053C2.26475 277.053 3.86664 276.632 4.80568 275.79C5.79996 274.948 6.2971 273.349 6.2971 270.991V243.376C6.2971 241.019 5.79996 239.419 4.80568 238.577C3.86664 237.735 2.26475 237.314 0 237.314V235.546C0.939041 235.602 2.37522 235.686 4.30854 235.799C6.24186 235.855 8.11994 235.883 9.94279 235.883C11.7656 235.883 13.5332 235.855 15.2456 235.799C17.0132 235.686 18.3389 235.602 19.2227 235.546ZM34.3855 255.668V257.352H11.0199V255.668H34.3855Z" fill="#E7D5A1"/>
<path d="M62.4182 279.411C60.1534 279.411 58.1925 278.99 56.5354 278.148C54.8782 277.25 53.6078 276.015 52.724 274.443C51.8954 272.872 51.4811 271.047 51.4811 268.971C51.4811 266.501 52.0335 264.48 53.1382 262.909C54.2982 261.337 55.762 260.074 57.5296 259.12C59.2973 258.166 61.1477 257.38 63.081 256.763C65.0696 256.089 66.9477 255.472 68.7153 254.91C70.4829 254.293 71.9191 253.591 73.0238 252.806C74.1838 252.02 74.7638 250.981 74.7638 249.691V244.471C74.7638 242.113 74.4048 240.317 73.6867 239.082C73.0238 237.847 72.1124 237.033 70.9524 236.641C69.7924 236.192 68.4943 235.967 67.0582 235.967C65.6772 235.967 64.1858 236.164 62.5839 236.556C61.0372 236.949 59.7944 237.763 58.8554 238.998C59.9049 239.223 60.8163 239.784 61.5896 240.682C62.3629 241.58 62.7496 242.731 62.7496 244.134C62.7496 245.537 62.3077 246.66 61.4239 247.501C60.5401 248.287 59.4077 248.68 58.0268 248.68C56.4249 248.68 55.2373 248.175 54.464 247.165C53.7459 246.098 53.3868 244.92 53.3868 243.629C53.3868 242.169 53.7459 240.991 54.464 240.093C55.182 239.194 56.0935 238.353 57.1982 237.567C58.4687 236.669 60.0982 235.911 62.0868 235.294C64.1306 234.62 66.4229 234.283 68.9639 234.283C71.2286 234.283 73.1619 234.564 74.7638 235.125C76.3657 235.63 77.6914 236.388 78.7409 237.398C80.1771 238.745 81.1162 240.401 81.5581 242.366C82 244.274 82.2209 246.575 82.2209 249.27V272.675C82.2209 274.078 82.4142 275.089 82.8009 275.706C83.2428 276.324 83.9057 276.632 84.7895 276.632C85.3971 276.632 85.9771 276.492 86.5295 276.211C87.0818 275.931 87.7447 275.482 88.518 274.864L89.4294 276.296C88.2694 277.194 87.1647 277.951 86.1152 278.569C85.0656 279.13 83.6571 279.411 81.8895 279.411C80.2876 279.411 78.9619 279.13 77.9124 278.569C76.8629 278.007 76.0619 277.194 75.5095 276.127C75.0124 275.005 74.7638 273.601 74.7638 271.917C73.2724 274.443 71.4772 276.324 69.3781 277.558C67.3343 278.793 65.0144 279.411 62.4182 279.411ZM65.401 276.043C67.2239 276.043 68.9086 275.51 70.4553 274.443C72.0572 273.377 73.4934 271.777 74.7638 269.644V253.142C74.101 254.097 73.1343 254.91 71.8638 255.584C70.5934 256.201 69.2124 256.847 67.721 257.52C66.2296 258.138 64.7934 258.896 63.4125 259.794C62.0868 260.636 60.982 261.758 60.0982 263.161C59.2144 264.565 58.7725 266.389 58.7725 268.634C58.7725 270.879 59.3525 272.675 60.5125 274.022C61.7277 275.369 63.3572 276.043 65.401 276.043Z" fill="#E7D5A1"/>
<path d="M121.004 239.251C119.788 239.251 118.794 238.998 118.021 238.493C117.247 237.988 116.612 237.342 116.115 236.556C115.563 235.602 115.176 234.62 114.955 233.61C114.789 232.543 114.707 231.673 114.707 231C114.707 228.249 115.397 225.752 116.778 223.506C118.159 221.261 120.313 219.437 123.241 218.034L123.986 219.549C122.274 220.279 120.783 221.43 119.512 223.001C118.297 224.573 117.689 226.173 117.689 227.8C117.689 228.474 117.772 229.063 117.938 229.568C118.822 228.839 119.844 228.474 121.004 228.474C122.44 228.474 123.683 228.951 124.732 229.905C125.782 230.859 126.306 232.178 126.306 233.862C126.306 235.434 125.782 236.725 124.732 237.735C123.683 238.745 122.44 239.251 121.004 239.251ZM135.089 239.251C133.874 239.251 132.88 238.998 132.106 238.493C131.333 237.988 130.698 237.342 130.201 236.556C129.648 235.602 129.262 234.62 129.041 233.61C128.875 232.543 128.792 231.673 128.792 231C128.792 228.249 129.483 225.752 130.864 223.506C132.244 221.261 134.399 219.437 137.326 218.034L138.072 219.549C136.36 220.279 134.868 221.43 133.598 223.001C132.383 224.573 131.775 226.173 131.775 227.8C131.775 228.474 131.858 229.063 132.024 229.568C132.907 228.839 133.929 228.474 135.089 228.474C136.525 228.474 137.768 228.951 138.818 229.905C139.867 230.859 140.392 232.178 140.392 233.862C140.392 235.434 139.867 236.725 138.818 237.735C137.768 238.745 136.525 239.251 135.089 239.251Z" fill="#E7D5A1"/>
<path d="M167.498 218.792L187.715 271.749C188.543 273.882 189.482 275.313 190.532 276.043C191.581 276.716 192.548 277.081 193.432 277.137V278.821C192.327 278.709 190.974 278.653 189.372 278.653C187.77 278.597 186.168 278.569 184.566 278.569C182.412 278.569 180.396 278.597 178.518 278.653C176.64 278.653 175.121 278.709 173.961 278.821V277.137C176.778 277.025 178.573 276.548 179.346 275.706C180.12 274.808 179.954 272.928 178.849 270.065L163.438 228.221L164.764 227.127L150.346 265.182C149.463 267.427 148.938 269.336 148.772 270.907C148.606 272.423 148.745 273.629 149.186 274.527C149.684 275.426 150.485 276.071 151.589 276.464C152.749 276.857 154.186 277.081 155.898 277.137V278.821C154.351 278.709 152.722 278.653 151.009 278.653C149.352 278.597 147.806 278.569 146.369 278.569C144.988 278.569 143.801 278.597 142.807 278.653C141.867 278.653 140.984 278.709 140.155 278.821V277.137C141.26 276.857 142.392 276.211 143.552 275.201C144.712 274.135 145.762 272.338 146.701 269.813L166.172 218.792C166.393 218.792 166.614 218.792 166.835 218.792C167.056 218.792 167.277 218.792 167.498 218.792ZM177.606 254.574V256.258H152.915L153.744 254.574H177.606Z" fill="#E7D5A1"/>
<path d="M237.17 235.546V237.314C234.906 237.314 233.276 237.735 232.282 238.577C231.343 239.419 230.873 241.019 230.873 243.376V270.991C230.873 273.349 231.343 274.948 232.282 275.79C233.276 276.632 234.906 277.053 237.17 277.053V278.821C236.231 278.765 234.85 278.709 233.028 278.653C231.205 278.541 229.216 278.485 227.062 278.485C224.908 278.485 222.726 278.541 220.516 278.653C218.362 278.709 216.677 278.765 215.462 278.821V277.053C217.948 277.053 219.881 276.66 221.262 275.875C222.698 275.033 223.416 273.405 223.416 270.991V243.376C223.416 241.019 223.002 239.419 222.173 238.577C221.345 237.735 219.936 237.314 217.948 237.314H217.202C215.821 237.314 214.91 237.735 214.468 238.577C214.026 239.419 213.694 241.019 213.473 243.376C213.032 248.596 212.479 253.591 211.816 258.362C211.209 263.077 210.159 267.343 208.668 271.16C208.115 272.507 207.425 273.882 206.596 275.285C205.768 276.632 204.746 277.755 203.531 278.653C202.371 279.551 200.962 280 199.305 280C198.311 280 197.372 279.804 196.488 279.411C195.604 279.074 194.886 278.541 194.334 277.811C193.781 277.025 193.505 276.071 193.505 274.948C193.505 273.545 193.919 272.451 194.748 271.665C195.576 270.879 196.654 270.486 197.979 270.486C199.139 270.486 200.106 270.823 200.879 271.497C201.708 272.17 202.122 273.18 202.122 274.527C202.122 275.426 201.874 276.239 201.376 276.969C200.879 277.643 200.078 278.204 198.974 278.653C199.084 278.709 199.222 278.737 199.388 278.737C199.609 278.737 199.747 278.737 199.802 278.737C201.183 278.737 202.343 278.288 203.282 277.39C204.276 276.436 205.105 275.341 205.768 274.106C206.486 272.816 207.011 271.693 207.342 270.739C208.226 268.381 208.972 265.743 209.579 262.825C210.187 259.906 210.684 256.791 211.071 253.479C211.457 250.168 211.761 246.8 211.982 243.376C212.148 241.019 211.651 239.419 210.491 238.577C209.386 237.735 207.701 237.314 205.436 237.314V235.546C205.878 235.602 206.569 235.686 207.508 235.799C208.502 235.855 209.69 235.883 211.071 235.883C212.175 235.883 213.308 235.883 214.468 235.883C215.683 235.883 216.898 235.883 218.113 235.883C219.163 235.883 220.13 235.883 221.013 235.883C221.897 235.883 222.836 235.883 223.831 235.883C224.825 235.883 225.93 235.883 227.145 235.883C228.415 235.883 229.686 235.855 230.956 235.799C232.282 235.743 233.497 235.686 234.602 235.63C235.707 235.574 236.563 235.546 237.17 235.546Z" fill="#E7D5A1"/>
<path d="M262.15 234.283C267.011 234.283 270.794 235.799 273.501 238.83C276.263 241.804 277.644 246.463 277.644 252.806H248.396L248.313 251.206H269.69C269.8 248.456 269.579 245.93 269.027 243.629C268.474 241.271 267.591 239.391 266.375 237.988C265.215 236.584 263.696 235.883 261.818 235.883C259.277 235.883 257.013 237.174 255.024 239.756C253.091 242.338 251.931 246.435 251.544 252.048L251.793 252.385C251.682 253.227 251.599 254.153 251.544 255.163C251.489 256.173 251.461 257.184 251.461 258.194C251.461 262.011 252.069 265.294 253.284 268.045C254.499 270.795 256.074 272.9 258.007 274.359C259.995 275.762 262.039 276.464 264.138 276.464C265.795 276.464 267.37 276.211 268.861 275.706C270.353 275.145 271.734 274.247 273.004 273.012C274.274 271.777 275.379 270.121 276.318 268.045L277.975 268.718C277.368 270.57 276.373 272.367 274.993 274.106C273.612 275.846 271.872 277.278 269.773 278.4C267.674 279.467 265.243 280 262.481 280C258.504 280 255.079 279.074 252.207 277.222C249.39 275.369 247.208 272.816 245.661 269.56C244.17 266.248 243.424 262.46 243.424 258.194C243.424 253.255 244.198 249.017 245.744 245.481C247.291 241.889 249.473 239.138 252.29 237.23C255.107 235.265 258.394 234.283 262.15 234.283Z" fill="#E7D5A1"/>
<path d="M320.386 234.283C322.32 234.283 323.673 234.76 324.446 235.714C325.275 236.669 325.689 237.735 325.689 238.914C325.689 240.149 325.302 241.215 324.529 242.113C323.756 242.955 322.679 243.376 321.298 243.376C320.303 243.376 319.447 243.152 318.729 242.702C318.011 242.253 317.459 241.636 317.072 240.85C316.685 240.008 316.492 239.054 316.492 237.988C316.492 237.875 316.492 237.763 316.492 237.651C316.492 237.539 316.492 237.454 316.492 237.398C315.884 237.679 315.332 238.184 314.835 238.914C314.393 239.643 313.923 240.626 313.426 241.861C312.929 243.095 312.349 244.611 311.686 246.407C311.134 247.922 310.499 249.382 309.781 250.785C309.063 252.188 308.068 253.367 306.798 254.321C305.527 255.275 303.787 255.893 301.578 256.173L302.324 255.584C305.638 255.472 308.538 255.837 311.023 256.679C313.564 257.52 315.553 259.092 316.989 261.393C317.928 262.853 318.702 264.649 319.309 266.782C319.972 268.915 320.662 270.795 321.381 272.423C321.988 273.826 322.679 274.92 323.452 275.706C324.281 276.436 325.551 276.885 327.263 277.053V278.821C326.38 278.99 325.496 279.13 324.612 279.242C323.728 279.355 322.9 279.411 322.126 279.411C319.641 279.411 317.818 278.821 316.658 277.643C315.498 276.408 314.614 274.752 314.006 272.675C313.73 271.721 313.399 270.57 313.012 269.223C312.625 267.82 312.156 266.417 311.604 265.014C311.051 263.554 310.388 262.291 309.615 261.225C308.4 259.485 306.825 258.362 304.892 257.857C302.959 257.296 300.445 257.071 297.352 257.184V255.752C300.39 255.584 302.738 255.079 304.395 254.237C306.052 253.339 307.323 252.104 308.206 250.532C309.09 248.961 309.891 247.109 310.609 244.976C311.162 243.404 311.769 241.804 312.432 240.177C313.095 238.493 314.034 237.09 315.249 235.967C316.52 234.844 318.232 234.283 320.386 234.283ZM303.152 235.546V237.314C301.164 237.314 299.755 237.735 298.926 238.577C298.098 239.419 297.684 241.019 297.684 243.376V270.991C297.684 273.349 298.098 274.948 298.926 275.79C299.755 276.632 301.164 277.053 303.152 277.053V278.821C302.268 278.765 300.943 278.709 299.175 278.653C297.407 278.541 295.612 278.485 293.789 278.485C291.966 278.485 290.088 278.541 288.155 278.653C286.277 278.709 284.868 278.765 283.929 278.821V277.053C286.194 277.053 287.796 276.632 288.735 275.79C289.729 274.948 290.226 273.349 290.226 270.991V243.376C290.226 241.019 289.729 239.419 288.735 238.577C287.796 237.735 286.194 237.314 283.929 237.314V235.546C284.868 235.602 286.277 235.686 288.155 235.799C290.088 235.855 291.966 235.883 293.789 235.883C295.612 235.883 297.407 235.855 299.175 235.799C300.943 235.686 302.268 235.602 303.152 235.546Z" fill="#E7D5A1"/>
<path d="M350.846 234.283C352.613 234.283 354.326 234.508 355.983 234.957C357.64 235.406 359.131 236.079 360.457 236.977C361.728 237.819 362.694 238.802 363.357 239.924C364.02 240.991 364.351 242.169 364.351 243.46C364.351 244.976 363.937 246.154 363.109 246.996C362.28 247.782 361.23 248.175 359.96 248.175C358.745 248.175 357.668 247.81 356.729 247.081C355.845 246.351 355.403 245.312 355.403 243.965C355.403 242.674 355.734 241.636 356.397 240.85C357.115 240.064 357.944 239.559 358.883 239.335C358.331 238.324 357.336 237.483 355.9 236.809C354.519 236.135 353.028 235.799 351.426 235.799C350.045 235.799 348.664 236.135 347.283 236.809C345.902 237.483 344.632 238.605 343.472 240.177C342.312 241.692 341.373 243.797 340.654 246.491C339.936 249.129 339.577 252.441 339.577 256.426C339.577 261.365 340.13 265.294 341.234 268.213C342.339 271.132 343.775 273.236 345.543 274.527C347.366 275.762 349.354 276.38 351.509 276.38C352.945 276.38 354.409 276.099 355.9 275.538C357.391 274.976 358.8 274.078 360.126 272.844C361.451 271.553 362.584 269.841 363.523 267.708L365.097 268.297C364.545 270.093 363.633 271.917 362.363 273.77C361.092 275.566 359.435 277.053 357.391 278.232C355.348 279.411 352.834 280 349.851 280C346.427 280 343.333 279.102 340.572 277.306C337.81 275.51 335.6 272.956 333.943 269.644C332.341 266.277 331.54 262.291 331.54 257.689C331.54 253.086 332.341 249.045 333.943 245.565C335.6 242.029 337.893 239.279 340.82 237.314C343.748 235.294 347.09 234.283 350.846 234.283Z" fill="#E7D5A1"/>
<path d="M390.561 234.283C395.422 234.283 399.206 235.799 401.913 238.83C404.675 241.804 406.055 246.463 406.055 252.806H376.807L376.724 251.206H398.101C398.212 248.456 397.991 245.93 397.438 243.629C396.886 241.271 396.002 239.391 394.787 237.988C393.627 236.584 392.108 235.883 390.23 235.883C387.689 235.883 385.424 237.174 383.436 239.756C381.502 242.338 380.342 246.435 379.956 252.048L380.204 252.385C380.094 253.227 380.011 254.153 379.956 255.163C379.9 256.173 379.873 257.184 379.873 258.194C379.873 262.011 380.48 265.294 381.696 268.045C382.911 270.795 384.485 272.9 386.418 274.359C388.407 275.762 390.451 276.464 392.55 276.464C394.207 276.464 395.781 276.211 397.273 275.706C398.764 275.145 400.145 274.247 401.415 273.012C402.686 271.777 403.791 270.121 404.73 268.045L406.387 268.718C405.779 270.57 404.785 272.367 403.404 274.106C402.023 275.846 400.283 277.278 398.184 278.4C396.085 279.467 393.655 280 390.893 280C386.916 280 383.491 279.074 380.619 277.222C377.801 275.369 375.619 272.816 374.073 269.56C372.581 266.248 371.836 262.46 371.836 258.194C371.836 253.255 372.609 249.017 374.156 245.481C375.702 241.889 377.884 239.138 380.701 237.23C383.518 235.265 386.805 234.283 390.561 234.283Z" fill="#E7D5A1"/>
<path d="M432.475 234.283C437.336 234.283 441.12 235.799 443.826 238.83C446.588 241.804 447.969 246.463 447.969 252.806H418.721L418.638 251.206H440.015C440.125 248.456 439.905 245.93 439.352 243.629C438.8 241.271 437.916 239.391 436.701 237.988C435.541 236.584 434.022 235.883 432.144 235.883C429.603 235.883 427.338 237.174 425.349 239.756C423.416 242.338 422.256 246.435 421.869 252.048L422.118 252.385C422.007 253.227 421.925 254.153 421.869 255.163C421.814 256.173 421.787 257.184 421.787 258.194C421.787 262.011 422.394 265.294 423.609 268.045C424.825 270.795 426.399 272.9 428.332 274.359C430.321 275.762 432.365 276.464 434.464 276.464C436.121 276.464 437.695 276.211 439.186 275.706C440.678 275.145 442.059 274.247 443.329 273.012C444.6 271.777 445.704 270.121 446.644 268.045L448.301 268.718C447.693 270.57 446.699 272.367 445.318 274.106C443.937 275.846 442.197 277.278 440.098 278.4C437.999 279.467 435.568 280 432.806 280C428.829 280 425.405 279.074 422.532 277.222C419.715 275.369 417.533 272.816 415.987 269.56C414.495 266.248 413.749 262.46 413.749 258.194C413.749 253.255 414.523 249.017 416.069 245.481C417.616 241.889 419.798 239.138 422.615 237.23C425.432 235.265 428.719 234.283 432.475 234.283Z" fill="#E7D5A1"/>
<path d="M474.886 235.546C478.974 235.546 482.177 235.967 484.497 236.809C486.873 237.651 488.557 238.858 489.552 240.429C490.546 241.945 491.043 243.713 491.043 245.733C491.043 248.652 489.524 251.206 486.486 253.395C483.503 255.584 478.974 256.679 472.897 256.679C472.897 256.679 472.759 256.622 472.483 256.51C472.262 256.398 472.014 256.286 471.737 256.173C471.461 256.061 471.323 256.005 471.323 256.005C474.637 255.949 477.151 255.584 478.863 254.91C480.631 254.181 481.818 253.114 482.426 251.711C483.089 250.308 483.42 248.54 483.42 246.407C483.42 244.667 483.172 243.123 482.674 241.776C482.233 240.373 481.321 239.279 479.94 238.493C478.615 237.707 476.654 237.314 474.057 237.314C471.848 237.314 470.274 237.763 469.335 238.661C468.451 239.503 468.009 241.075 468.009 243.376V270.991C468.009 273.349 468.451 274.948 469.335 275.79C470.274 276.632 471.931 277.053 474.306 277.053C477.399 277.053 479.774 276.576 481.432 275.622C483.144 274.668 484.304 273.405 484.912 271.833C485.574 270.262 485.906 268.55 485.906 266.698C485.906 263.105 484.912 260.664 482.923 259.373C480.99 258.082 478.504 257.436 475.466 257.436H462.872C462.872 257.436 462.872 257.212 462.872 256.763C462.872 256.258 462.872 256.005 462.872 256.005H474.72L475.466 256.173C479.885 256.173 483.42 256.594 486.072 257.436C488.778 258.222 490.712 259.401 491.872 260.972C493.087 262.488 493.694 264.368 493.694 266.613C493.694 268.858 493.087 270.907 491.872 272.759C490.712 274.612 488.778 276.099 486.072 277.222C483.365 278.288 479.719 278.821 475.135 278.821C473.422 278.821 471.655 278.765 469.832 278.653C468.009 278.541 466.076 278.485 464.032 278.485C462.319 278.485 460.497 278.541 458.563 278.653C456.63 278.709 455.194 278.765 454.255 278.821V277.053C456.519 277.053 458.121 276.632 459.06 275.79C460.055 274.948 460.552 273.349 460.552 270.991V243.376C460.552 241.019 460.055 239.419 459.06 238.577C458.121 237.735 456.519 237.314 454.255 237.314V235.546C455.194 235.602 456.63 235.686 458.563 235.799C460.497 235.855 462.319 235.883 464.032 235.883C466.02 235.883 467.954 235.827 469.832 235.714C471.71 235.602 473.395 235.546 474.886 235.546Z" fill="#E7D5A1"/>
<path d="M520.2 234.283C521.968 234.283 523.68 234.508 525.337 234.957C526.994 235.406 528.486 236.079 529.811 236.977C531.082 237.819 532.049 238.802 532.711 239.924C533.374 240.991 533.706 242.169 533.706 243.46C533.706 244.976 533.291 246.154 532.463 246.996C531.634 247.782 530.585 248.175 529.314 248.175C528.099 248.175 527.022 247.81 526.083 247.081C525.199 246.351 524.757 245.312 524.757 243.965C524.757 242.674 525.089 241.636 525.751 240.85C526.47 240.064 527.298 239.559 528.237 239.335C527.685 238.324 526.691 237.483 525.254 236.809C523.873 236.135 522.382 235.799 520.78 235.799C519.399 235.799 518.018 236.135 516.637 236.809C515.256 237.483 513.986 238.605 512.826 240.177C511.666 241.692 510.727 243.797 510.009 246.491C509.291 249.129 508.932 252.441 508.932 256.426C508.932 261.365 509.484 265.294 510.589 268.213C511.693 271.132 513.13 273.236 514.897 274.527C516.72 275.762 518.709 276.38 520.863 276.38C522.299 276.38 523.763 276.099 525.254 275.538C526.746 274.976 528.154 274.078 529.48 272.844C530.806 271.553 531.938 269.841 532.877 267.708L534.451 268.297C533.899 270.093 532.988 271.917 531.717 273.77C530.447 275.566 528.79 277.053 526.746 278.232C524.702 279.411 522.189 280 519.206 280C515.781 280 512.688 279.102 509.926 277.306C507.164 275.51 504.954 272.956 503.297 269.644C501.695 266.277 500.894 262.291 500.894 257.689C500.894 253.086 501.695 249.045 503.297 245.565C504.954 242.029 507.247 239.279 510.174 237.314C513.102 235.294 516.444 234.283 520.2 234.283Z" fill="#E7D5A1"/>
<path d="M576.238 234.283C578.172 234.283 579.525 234.76 580.298 235.714C581.127 236.669 581.541 237.735 581.541 238.914C581.541 240.149 581.154 241.215 580.381 242.113C579.608 242.955 578.531 243.376 577.15 243.376C576.155 243.376 575.299 243.152 574.581 242.702C573.863 242.253 573.311 241.636 572.924 240.85C572.537 240.008 572.344 239.054 572.344 237.988C572.344 237.875 572.344 237.763 572.344 237.651C572.344 237.539 572.344 237.454 572.344 237.398C571.736 237.679 571.184 238.184 570.687 238.914C570.245 239.643 569.776 240.626 569.278 241.861C568.781 243.095 568.201 244.611 567.538 246.407C566.986 247.922 566.351 249.382 565.633 250.785C564.915 252.188 563.92 253.367 562.65 254.321C561.379 255.275 559.639 255.893 557.43 256.173L558.176 255.584C561.49 255.472 564.39 255.837 566.876 256.679C569.416 257.52 571.405 259.092 572.841 261.393C573.78 262.853 574.554 264.649 575.161 266.782C575.824 268.915 576.515 270.795 577.233 272.423C577.84 273.826 578.531 274.92 579.304 275.706C580.133 276.436 581.403 276.885 583.115 277.053V278.821C582.232 278.99 581.348 279.13 580.464 279.242C579.58 279.355 578.752 279.411 577.978 279.411C575.493 279.411 573.67 278.821 572.51 277.643C571.35 276.408 570.466 274.752 569.858 272.675C569.582 271.721 569.251 270.57 568.864 269.223C568.477 267.82 568.008 266.417 567.456 265.014C566.903 263.554 566.24 262.291 565.467 261.225C564.252 259.485 562.677 258.362 560.744 257.857C558.811 257.296 556.298 257.071 553.204 257.184V255.752C556.242 255.584 558.59 255.079 560.247 254.237C561.904 253.339 563.175 252.104 564.058 250.532C564.942 248.961 565.743 247.109 566.461 244.976C567.014 243.404 567.621 241.804 568.284 240.177C568.947 238.493 569.886 237.09 571.101 235.967C572.372 234.844 574.084 234.283 576.238 234.283ZM559.004 235.546V237.314C557.016 237.314 555.607 237.735 554.779 238.577C553.95 239.419 553.536 241.019 553.536 243.376V270.991C553.536 273.349 553.95 274.948 554.779 275.79C555.607 276.632 557.016 277.053 559.004 277.053V278.821C558.12 278.765 556.795 278.709 555.027 278.653C553.259 278.541 551.464 278.485 549.641 278.485C547.819 278.485 545.94 278.541 544.007 278.653C542.129 278.709 540.72 278.765 539.781 278.821V277.053C542.046 277.053 543.648 276.632 544.587 275.79C545.581 274.948 546.079 273.349 546.079 270.991V243.376C546.079 241.019 545.581 239.419 544.587 238.577C543.648 237.735 542.046 237.314 539.781 237.314V235.546C540.72 235.602 542.129 235.686 544.007 235.799C545.94 235.855 547.819 235.883 549.641 235.883C551.464 235.883 553.259 235.855 555.027 235.799C556.795 235.686 558.12 235.602 559.004 235.546Z" fill="#E7D5A1"/>
<path d="M606.284 234.283C609.819 234.283 612.995 235.069 615.812 236.641C618.629 238.212 620.866 240.682 622.523 244.05C624.236 247.417 625.092 251.795 625.092 257.184C625.092 262.572 624.236 266.95 622.523 270.318C620.866 273.629 618.629 276.071 615.812 277.643C612.995 279.214 609.819 280 606.284 280C602.804 280 599.627 279.214 596.755 277.643C593.938 276.071 591.673 273.629 589.961 270.318C588.304 266.95 587.475 262.572 587.475 257.184C587.475 251.795 588.304 247.417 589.961 244.05C591.673 240.682 593.938 238.212 596.755 236.641C599.627 235.069 602.804 234.283 606.284 234.283ZM606.284 235.967C603.135 235.967 600.539 237.623 598.495 240.934C596.506 244.246 595.512 249.662 595.512 257.184C595.512 264.705 596.506 270.121 598.495 273.433C600.539 276.688 603.135 278.316 606.284 278.316C609.432 278.316 612.001 276.688 613.989 273.433C616.033 270.121 617.055 264.705 617.055 257.184C617.055 249.662 616.033 244.246 613.989 240.934C612.001 237.623 609.432 235.967 606.284 235.967Z" fill="#E7D5A1"/>
<path d="M678.439 235.546V237.314C676.175 237.314 674.545 237.735 673.551 238.577C672.612 239.419 672.142 241.019 672.142 243.376V270.991C672.142 273.349 672.612 274.948 673.551 275.79C674.545 276.632 676.175 277.053 678.439 277.053V278.821C677.5 278.765 676.064 278.709 674.131 278.653C672.197 278.541 670.319 278.485 668.497 278.485C666.674 278.485 664.878 278.541 663.111 278.653C661.398 278.709 660.1 278.765 659.217 278.821V277.053C661.205 277.053 662.614 276.632 663.442 275.79C664.271 274.948 664.685 273.349 664.685 270.991V243.376C664.685 241.019 664.271 239.419 663.442 238.577C662.614 237.735 661.205 237.314 659.217 237.314V235.546C660.1 235.602 661.398 235.686 663.111 235.799C664.878 235.855 666.674 235.883 668.497 235.883C670.319 235.883 672.197 235.855 674.131 235.799C676.064 235.686 677.5 235.602 678.439 235.546ZM650.6 235.546V237.314C648.611 237.314 647.202 237.735 646.374 238.577C645.545 239.419 645.131 241.019 645.131 243.376V270.991C645.131 273.349 645.545 274.948 646.374 275.79C647.202 276.632 648.611 277.053 650.6 277.053V278.821C649.716 278.765 648.39 278.709 646.622 278.653C644.91 278.541 643.142 278.485 641.32 278.485C639.497 278.485 637.619 278.541 635.685 278.653C633.752 278.709 632.316 278.765 631.377 278.821V277.053C633.642 277.053 635.243 276.632 636.182 275.79C637.177 274.948 637.674 273.349 637.674 270.991V243.376C637.674 241.019 637.177 239.419 636.182 238.577C635.243 237.735 633.642 237.314 631.377 237.314V235.546C632.316 235.602 633.752 235.686 635.685 235.799C637.619 235.855 639.497 235.883 641.32 235.883C643.142 235.883 644.91 235.855 646.622 235.799C648.39 235.686 649.716 235.602 650.6 235.546ZM665.514 241.44L666.839 242.366L644.054 274.359L642.728 273.349L665.514 241.44ZM665.597 211.972C666.867 211.972 667.917 212.393 668.745 213.235C669.574 214.077 669.988 215.143 669.988 216.434C669.988 217.613 669.629 218.736 668.911 219.802C668.193 220.812 667.254 221.71 666.094 222.496C664.934 223.282 663.442 223.984 661.619 224.601C659.797 225.218 657.504 225.527 654.742 225.527C652.036 225.527 649.743 225.218 647.865 224.601C646.042 223.984 644.551 223.282 643.391 222.496C642.231 221.71 641.292 220.812 640.574 219.802C639.856 218.736 639.497 217.613 639.497 216.434C639.497 215.143 639.911 214.077 640.74 213.235C641.568 212.393 642.618 211.972 643.888 211.972C645.159 211.972 646.236 212.365 647.12 213.151C648.003 213.937 648.445 215.059 648.445 216.518C648.445 217.697 648.114 218.651 647.451 219.381C646.843 220.111 646.015 220.588 644.965 220.812C646.07 222.047 647.589 222.861 649.522 223.254C651.511 223.647 653.251 223.843 654.742 223.843C656.234 223.843 657.946 223.647 659.879 223.254C661.868 222.861 663.415 222.047 664.519 220.812C663.47 220.588 662.614 220.111 661.951 219.381C661.343 218.651 661.039 217.697 661.039 216.518C661.039 215.059 661.481 213.937 662.365 213.151C663.304 212.365 664.381 211.972 665.597 211.972Z" fill="#E7D5A1"/>
<path d="M704.703 218.034C705.918 218.034 706.912 218.287 707.686 218.792C708.459 219.297 709.094 219.942 709.591 220.728C710.199 221.626 710.586 222.608 710.751 223.675C710.917 224.741 711 225.611 711 226.285C711 229.035 710.31 231.533 708.929 233.778C707.548 236.023 705.393 237.847 702.466 239.251L701.72 237.735C703.432 237.005 704.896 235.855 706.111 234.283C707.382 232.712 708.017 231.112 708.017 229.484C708.017 228.811 707.934 228.221 707.769 227.716C706.885 228.446 705.863 228.811 704.703 228.811C703.267 228.811 702.024 228.334 700.974 227.379C699.925 226.425 699.4 225.106 699.4 223.422C699.4 221.851 699.925 220.56 700.974 219.549C702.024 218.539 703.267 218.034 704.703 218.034ZM690.617 218.034C691.833 218.034 692.827 218.287 693.6 218.792C694.373 219.297 695.009 219.942 695.506 220.728C696.113 221.626 696.5 222.608 696.666 223.675C696.832 224.741 696.914 225.611 696.914 226.285C696.914 229.035 696.224 231.533 694.843 233.778C693.462 236.023 691.308 237.847 688.38 239.251L687.634 237.735C689.347 237.005 690.811 235.855 692.026 234.283C693.296 232.712 693.932 231.112 693.932 229.484C693.932 228.811 693.849 228.221 693.683 227.716C692.799 228.446 691.777 228.811 690.617 228.811C689.181 228.811 687.938 228.334 686.889 227.379C685.839 226.425 685.314 225.106 685.314 223.422C685.314 221.851 685.839 220.56 686.889 219.549C687.938 218.539 689.181 218.034 690.617 218.034Z" fill="#E7D5A1"/>
</svg>
